<svg id="Calque_1" data-name="Calque 1" xmlns="http://www.w3.org/2000/svg" viewBox="0 0 304.71 303.13"><defs><style>.cls-1{fill:#ccc;stroke:#fff;stroke-width:0.5px;}</style></defs><path id="AE" class="cls-1" d="M272.07,60.63l.7-.21.14,1.18,3.07-.68,3.25.11,2.37.13,2.69-2.9,2.93-2.76,2.48-2.68.74,1.48.54,3.41-2,0-.32,2.8.7.59-1.78.84v1.75l-1.15,1.75-.1,1.71-.79.89-11.8-2.13-1.5-4.31Z" transform="translate(0.08 -0.38)"/><path id="AO" class="cls-1" d="M133.69,181.12l1,2.92,1.13,2.36.9,1.27,1.51,2.06,2.59-.32,1.3-.56,2.17.56.58-1,1-2.29,2.43-.15.22-.68,2,0-.34,1.42,4.76,0,.07,2.47.8,1.52-.58,2.38.29,2.43,1.31,1.47-.21,4.72,1-.37,1.7.1,2.44-.6,1.78.24.42,1.23-.45,1.93.69,1.87-.58,1.5.33,1.38-8.17-.05-.18,12.82,2.65,3.33,2.56,2.55-7.22,1.67-9.5-.58-2.72-2-15.91.17-.6.29-2.34-1.85-2.54-.12-2.35.7-1.89.77-.37-2.56.54-3.57,1.36-3.71.2-1.73,1.27-3.62.94-1.64,2.26-2.62,1.25-1.78.42-2.95-.21-2.25-1.17-1.42-1.05-2.4-1-2.37.21-.82,1.2-1.57-1.19-3.8-.8-2.63-2-2.49L118,182l1.62-.53,1.14.08,1.38-.47Zm-15.27-.76-1,.41-1-2.94,1.58-1.69,1.19-.66,1.47,1.34-1.43.83-.64,1Z" transform="translate(0.08 -0.38)"/><path id="BF" class="cls-1" d="M58.5,120.38l-2.69-1-1.84.15-1.37,1-1.77-.84-.68-1.31-1.77-.86-.26-2.31,1.07-1.68-.09-1.35,3.12-3.31.57-2.74,1.08-1,1.9.54,1.64-.81.54-1,3-1.8.75-1.26,3.67-1.67,2.16-.58,1,.78,2.52,0-.31,2,.52,1.84,2.22,2.62.12,1.94,4.52.9-.08,2.74-.86,1.19-1.92.37-.8,1.74-1.35.45-3.44-.08-1.81-.32-1.27.64L64.87,115l-6.82.19L58,117.4Z" transform="translate(0.08 -0.38)"/><path id="BI" class="cls-1" d="M184.77,175.72l-.25-4.71-1-1.78,2.39.31,1.2-2.22,2.08.25.23,1.54.85.89,0,1.27-1,.81-1.52,2-1.43,1.42Z" transform="translate(0.08 -0.38)"/><path id="BJ" class="cls-1" d="M80.16,133.7l-3.24.46-1-2.7.18-9.05-.79-.81-.15-1.94-1.36-1.39-1.2-1.17.5-2.09,1.35-.45.8-1.74,1.92-.37.86-1.19,1.31-1.17h1.41l3,2.29-.15,1.32.88,2.36-.77,1.6.41,1.07-1.9,2.45L81,122.38l-.74,2.49.1,2.5Z" transform="translate(0.08 -0.38)"/><path id="BW" class="cls-1" d="M170.28,231.74l.79.74,1.23,2.39,4.45,4.55,1.68.45v1.47l1.15,2.66,3,.64,2.5,1.9-5.55,3.11-3.53,3.17-1.31,2.85-1.18,1.61-2.13.34-.69,2.06-.4,1.35-2.51,1-3.19-.22-1.88-1.21-1.65-.52-1.92,1-1,2.07-1.86,1.31-2,1.95-2.81.45-.88-1.54.36-2.65-2.32-4.1-1.06-.65V245.52l3.86-.14.12-14.8,2.92-.14,6.05-1.43,1.5,1.69,2.51-1.61h1.19l2.21-.92.71.3Z" transform="translate(0.08 -0.38)"/><path id="CD" class="cls-1" d="M190.63,144.47,190.4,149l1.57.53L190.71,151l-1.51,1-1.5,2-.83,1.81-.22,3.13-.91,1.49,0,2.94-1.13,1.09-.15,2.32-.54.3-.36,2.13,1,1.78.25,4.71.7,3.6-.39,2,.79,2.28,2.27,2.2,2.12,4.95-1.54-.4-5.27.67-1.06.47-1.12,2.52.88,1.74-.69,4.69-.49,4,1.06.71,2.74,1.55,1.08-.73.33,4.31-3,0-1.62-2.2-1.44-1.7-3-.56-.88-2.09-2.4,1.26-3.15-.56-1.31-1.81-2.49-.36-1.84.09-.22-1.23-1.36-.1-1.79-.24-2.43.6-1.7-.1-1,.37.21-4.72-1.31-1.47-.29-2.43.58-2.38-.8-1.52-.07-2.47-4.76,0,.34-1.42-2,0-.22.68-2.43.15-1,2.29-.58,1-2.17-.56-1.3.56-2.59.32-1.51-2.06-.9-1.27L134.65,184l-1-2.92-11.59-.05-1.37.47-1.14-.08L118,182l-.55-1.22,1-.41.12-1.71.64-1,1.43-.83,1,.4,1.34-1.5,2.14,0,.25,1.11,1.47.69,2.31-2.45,2.29-1.91,1-1.25-.13-3.21L134,165l1.8-2,2.59-1.88.45-1.25.09-1.42.64-1.36-.2-2.21.49-3.45.77-2.44,1.17-2.08.23-2.36.36-2.73,1.52-2,2.11-1.26,3.23,1.33,2.5,1.44,2.87.38,2.93.77,1.17-2.37.54-.3,1.79.4,4.37-2L167,139l1.27-.12.59-.95,1.46-.33,3,.41,2.52.09,1.29-.42,2.38,3.23,1.76.48,1.05-.66,1.82.26,2.18-.83.94,1.67Z" transform="translate(0.08 -0.38)"/><path id="CF" class="cls-1" d="M129.58,129.14l3.24-.3.72-1,.65.08,1,.89,4.94-1.51,1.66-1.54,2.05-1.37-.39-1.39,1.11-.37,3.79.25L152,121l2.84-4.32,2-1.61,2.49-.68.44,1.7,2.27,2.48v1.62l-.64,1.64.25,1.23,1.36,1.14,3,1.72,2.15,1.59,0,1.28,2.64,2,1.63,1.7,1,2.35,2.93,1.55.63,1.24-1.29.42-2.52-.09-3-.41-1.46.33-.59.95L167,139l-1.55-.83-4.37,2-1.79-.4-.54.3-1.17,2.37-2.93-.77-2.87-.38-2.5-1.44L146,138.52l-2.11,1.26-1.52,2-.36,2.73-2.52-.22-2.66-.66-2.34,2.07-2.06,3.63-.41-1.13-.18-1.78-1.79-1.25-1.45-2-.33-1.4-1.86-2,.32-1.16-.39-1.65.3-3,.94-.71Z" transform="translate(0.08 -0.38)"/><path id="CG" class="cls-1" d="M120.61,176.82l-1.47-1.34-1.19.66-1.58,1.69-3.23-4.14,3-2.16L114.65,169l1.35-1,2.65-.48.31-1.73,2.1,1.87,3.46.17,1.21-1.85.49-2.59-.43-3.05-1.85-2.3,1.7-4.52-1-.77-2.92.31-1.1-2,.29-1.7,4.95.15,3.17,1,3.12.92.28-2.11,2.06-3.63,2.34-2.07,2.66.66,2.52.22-.23,2.36-1.17,2.08-.77,2.44-.49,3.45.2,2.21-.64,1.36-.09,1.42-.45,1.25-2.59,1.88-1.8,2-1.7,3.79.13,3.21-1,1.25-2.29,1.91-2.31,2.45-1.47-.69-.25-1.11-2.14,0-1.34,1.5Z" transform="translate(0.08 -0.38)"/><path id="CI" class="cls-1" d="M58.39,138.66l-1.79,0-2.74-.77-2.52,0-4.64.68L44,139.79l-3.89,1.44-.76-.11.31-3.22.37-.49-.12-1.54-1.66-1.64L37,134l-1.14-1.07.85-1.75-.39-1.9.18-1.14h.62l.23-1.71-.3-.76.37-.55,1.46-.48-1-3.16L37,119.8l.31-1.35.79-.3.51-.36,1.09.59,3,0,.72-1.16.68.08,1.13-.45.61,1.69.91-.5,1.62-.58,1.77.86.68,1.31,1.77.84,1.37-1,1.84-.15,2.69,1,1,5.62-1.65,3.3-1,4.44,1.7,3.38Z" transform="translate(0.08 -0.38)"/><path id="CM" class="cls-1" d="M120.93,149.32l-.49-.22-2.33.51-2.38-.53-1.87.26-6.39-.09.58-3.08-1.54-2.58-1.79-.67-.8-1.75-1-.56,0-1.08,1-2.77,1.87-3.78,1.14,0,2.34-2.3,1.48-.06,2.21,1.61,2.7-1.32.36-1.63.88-1.59.61-2,2.1-1.63.79-2.76.84-.88.55-2.06,1-2.53,3.3-3.08.21-1.32.43-.72-1.56-1.59.13-1.27,1.11-.23,1.56,2.56.26,2.64-.14,2.64,2.14,3.61-2.2,0-1.1.28-1.79-.4-.86,1.87,2.32,2.31,1.71.66.55,1.64,1.24,2.71-.61,1.07-2,4-.94.71-.3,3,.39,1.65-.32,1.16,1.86,2,.33,1.4,1.45,2,1.79,1.25.18,1.78.41,1.13-.28,2.11-3.12-.92-3.17-1Z" transform="translate(0.08 -0.38)"/><path id="DJ" class="cls-1" d="M238.71,108.23l.93,1.23-.13,1.66-2.24.95,1.69,1.09-1.45,2.13-.87-.71-.94.28-2.19-.06-.07-1.21-.3-1.1,1.32-1.87,1.38-1.77,1.68.35Z" transform="translate(0.08 -0.38)"/><path id="DZ" class="cls-1" d="M116.7,63.93,103.25,72,91.88,80.18,86.35,82l-4.36.4,0-2.63-1.82-.67-2.44-1.19-.94-2L63.51,66.81,50.27,57.5,35.51,47l.07-.85v-.29l0-5.26,6.34-3.3,3.92-.68L49,35.37l1.5-2.27,4.59-1.8.17-3.38,2.27-.4,1.78-1.7L64.46,25l.72-1.8-1-1-1.36-5-.23-2.87-1.48-3,3.77-2.62,4.25-.84,2.48-2,3.78-1.48L82,3.59l6.49-.4,2,.73L94.18,2l4.19,0L100,3.09l2.68-.3-.79,2.51.62,4.6-.93,3.94-2.42,2.64L99.48,20l3.21,2.77,0,1.13,2.43,1.86,1.67,8.2,1.27,4L108.3,40l-.69,3.62.28,2-.5,2.4.35,2.75-1.56,1.82,2.32,3.16.15,1.85,1.4,2.4,1.83-.79,3.1,2Z" transform="translate(0.08 -0.38)"/><path id="EG" class="cls-1" d="M206.68,37.61l-1.1,1.8-.84,3.37-1.07,2.3-.92.77-1.31-1.42-1.77-2L196.87,36l-.4.41,1.63,4.72,2.4,4.46,3,6.82,1.45,2.36,1.26,2.43L209.7,62l-.78.75.13,2.76,4.57,3.8.69.86H167.73V38.79l-1.18-3.62,1-2.8L167,30.43l1.42-2.2,5.22-.07,3.78,1.21,3.9,1.35,1.81.71,3-1.45,1.61-1.31,3.46-.38,2.8.58,1.06,2.27.92-1.49,3.14,1.08,3.06.25,1.93-1.15Z" transform="translate(0.08 -0.38)"/><path id="ER" class="cls-1" d="M235.84,108.85l-1.34-1.29-1.61-2.35-1.74-1.29-1-1.38-3.41-1.62-2.7,0-.94-.84-2.3,1-2.39-1.83-1.22,3-4.57-.85-.42-1.61,1.69-6,.39-2.71,1.23-1.25,2.9-.67,2-2.34,2.28,4.74,1.08,3.73,2.15,2,5.36,3.82,2.18,2.29,2.13,2.32,1.23,1.37,1.93,1.21-1.19,1Z" transform="translate(0.08 -0.38)"/><path id="ET" class="cls-1" d="M218.39,99.15l2.39,1.83,2.3-1,.94.84,2.7,0,3.41,1.62,1,1.38,1.74,1.29,1.61,2.35,1.34,1.29-1.38,1.77-1.32,1.87.3,1.1.07,1.21,2.19.06.94-.28.87.71-.85,1.41,1.45,2.18,1.44,1.9,1.5,1.41,12.84,4.69,3.3,0L246.1,138.63l-5.12.18-3.49,2.75-2.52.07-1.08,1.24h-2.68l-1.58-1.33L226,143.18l-1.16,1.63-2.61-.31-.87-.45-.92.11-1.24,0-5-3.32h-2.73l-1.34-1.29v-2.2l-2-.65-2.32-4.27-1.8-.91-.68-1.57-2-1.92-2.42-.28,1.34-2.24,2.09-.1.58-1.2-.05-3.56,1.16-4.14,1.86-1.11.4-1.63,1.68-3,2.37-2,1.59-3.94.63-3.46,4.57.85Z" transform="translate(0.08 -0.38)"/><path id="GA" class="cls-1" d="M113.14,173.69l-4-3.95-2.59-3.22-2.39-4,.13-1.29.86-1.25.95-2.84.79-2.89,1.32-.22,5.72,0,0-4.69,1.87-.26,2.38.53,2.33-.51.49.22-.29,1.7,1.1,2,2.92-.31,1,.77-1.7,4.52,1.85,2.3.43,3.05-.49,2.59-1.21,1.85-3.46-.17-2.1-1.87-.31,1.73L116,168l-1.35,1,1.48,2.58Z" transform="translate(0.08 -0.38)"/><path id="GH" class="cls-1" d="M73.76,135l-6.15,2.29-2.19,1.35-3.54,1.13-3.49-1.11.17-1.54-1.7-3.38,1-4.44,1.65-3.3-1-5.62-.54-3,.09-2.25,6.82-.19,1.74.29,1.27-.64,1.81.32-.29,1.23,1.64,2v2.87l.38,3.11,1,1.44-.87,3.55.32,1.95,1,2.49Z" transform="translate(0.08 -0.38)"/><path id="GM" class="cls-1" d="M3.49,106.42l.5-1.78,4.28-.12.88-1,1.25-.06,1.55,1,1.21,0,1.3-.68.79,1.16-1.7.9-1.7-.07L10.16,105l-1.45.93-.71,0-.94.56Z" transform="translate(0.08 -0.38)"/><path id="GN" class="cls-1" d="M36.47,128.1l-1.11-.1-.8,1.58-1.11,0-.76-.83.26-1.59-1.65-2.41-1,.44-.84.09-1.08.23,0-1.45-.63-1,.13-1.15-.85-1.66L26,118.78H22.82l-.92.75-1.08.09-.67.85-.45,1.1-2.1,1.73L15.88,121l-1.53-1.54-1-.52-1-.78-.45-1.76-.57-.87-1.14-.65L12,112.9l1.19.07,1-.66H15l.62-.53-.33-1.32.43-.42.07-1.35,1.89,0,2.82,1,.87-.08.29-.45,2.14.32.57-.23.23,1.46h.62l1-.53.66.13,1.08,1,1.68.32,1.08-.86,1.27-.54.94-.55.79.1.87.88.47,1.1,1.61,1.66-.81,1-.15,1.29.84-.39.49.46L36.88,117l1.2,1.15-.79.3L37,119.8l.9,1.63,1,3.16-1.46.48-.37.55.3.76-.23,1.71Z" transform="translate(0.08 -0.38)"/><path id="GQ" class="cls-1" d="M106.86,154.22l-.73-.59,1.34-4.38,6.39.09,0,4.69-5.72,0Z" transform="translate(0.08 -0.38)"/><path id="GW" class="cls-1" d="M10.21,114.84l-2.1-1.66-1.65-.27-.9-1.12,0-.61-1.2-.84-.25-.86,2.08-.65,1.3.13,1.05-.45,7.26.17L15.75,110l-.43.42.33,1.32-.62.53h-.86l-1,.66L12,112.9Z" transform="translate(0.08 -0.38)"/><path id="IL" class="cls-1" d="M209.81,23l-.68,1.46-1.42-.64-.82,3.08,1,.51-1,.64-.17,1.2,1.85-.62.09,1.78-2,7.23-2.58-7.78,1.14-1.5-.26-.26,1-2.15.8-3.49.56-1.18.11-.05h1.32l.36-.82,1.05-.06.06,1.91-.53.7Z" transform="translate(0.08 -0.38)"/><path id="IQ" class="cls-1" d="M247.89,7.5,250.46,9l.3,2.8-2,1.64-.91,3.7,2.72,4.45,4.8,2.55,2,3.5-.64,3.31H258l0,2.42,2.18,2.38-2.33-.22-2.64-.38-2.88,4.31-7.3-.35L234,30l-5.85-3.21-4.73-1.25-1.58-5.66L230.56,15l1.49-5.77-.37-3.53,2.14-1.2,2-3.06,1.68-.76,4.57.64,1.38,1.24,1.88-.82Z" transform="translate(0.08 -0.38)"/><path id="JO" class="cls-1" d="M209.13,24.43l.68-1.46,4.38,1.84,7.68-5,1.58,5.66-.74.7-7.87,2.3,3.92,4.56-1.3.77-.65,1.51-3,.63-.94,1.61L211.18,39l-4.37-.71-.13-.65,2-7.23-.09-1.78.58-1.35Z" transform="translate(0.08 -0.38)"/><path id="KE" class="cls-1" d="M230.51,161.5l2.33,3.22-2.75,1.56-1,1.63-1.47.29-.56,2.75-1.26,1.57-.77,2.6-1.58,1.29-5.63-3.9-.27-2.27-14.23-8-.67-.43,0-4.13,1.13-1.58,1.93-2.58,1.43-2.84-1.73-4.48-.46-2-1.86-2.72,2.42-2.33,2.66-2.58,2,.65v2.2l1.34,1.29h2.73l5,3.32,1.24,0,.92-.11.87.45,2.61.31,1.16-1.63,3.59-1.64,1.58,1.33h2.68l-3.43,4.43Z" transform="translate(0.08 -0.38)"/><path id="KW" class="cls-1" d="M257.92,35.48l.82,2-.36,1,1.27,3.36-2.78.12-1-2.13-3.5-.43,2.88-4.31Z" transform="translate(0.08 -0.38)"/><path id="LB" class="cls-1" d="M210.21,20.33l-1.05.06-.36.82h-1.32l1.4-3.82,2-3.33.08-.17,1.76.25.64,1.85-2.14,1.78Z" transform="translate(0.08 -0.38)"/><path id="LR" class="cls-1" d="M39.32,141.12l-1,0-4-1.87-3.57-3-3.34-2.14-2.64-2.53.93-1.26.21-1.14,1.77-2.14,1.83-1.84.84-.09,1-.44L33,127.14l-.26,1.59.76.83,1.11,0,.8-1.58,1.11.1-.18,1.14.39,1.9-.85,1.75L37,134l1.25.27,1.66,1.64.12,1.54-.37.49Z" transform="translate(0.08 -0.38)"/><path id="LS" class="cls-1" d="M183.35,276.26l1.36,1.35-1.2,2.18-.67,1.47-2.19.71-.72,1.45-1.41.45-2.94-3.48,2.09-2.84,2.13-1.75,1.84-.91Z" transform="translate(0.08 -0.38)"/><path id="LY" class="cls-1" d="M127.89,66.52l-2.77,1.57-2.21-2.33-6.21-1.83L115,61.26l-3.1-2-1.83.79-1.4-2.4-.15-1.85-2.32-3.16,1.56-1.82-.35-2.75.5-2.4-.28-2L108.3,40,108.09,38l-1.27-4,1.91-1,.34-1.92-.41-1.89,2.69-1.77,1.21-1.47,1.91-1.33L114.7,21l4.61,1.61,1.65-.4,3.27.77L129.44,25l1.84,4.09,3.53.88,5.53,1.91,4.18,2.25L146.43,33l1.88-2.09-.91-3.5,1.23-2.25L151.46,23l2.7-.64,5.31.95,1.34,2.07,1.46,0,1.25.79,3.9.54,1,1.51L167,30.43l.61,1.94-1,2.8,1.18,3.62V78.51h-4.51l-.05,1.74-15.66-8L131.86,64.2Z" transform="translate(0.08 -0.38)"/><path id="MA" class="cls-1" d="M64.15,22.26l-1.36-5-.23-2.87-1.48-3-1.71-.05-4.06-1.06-3.73.33-2.37-2-2.89,0L45.09,11.5l-2.63,4.92-2.91,1.94L35.61,20.5l-2.52,3.15-.53,2.43-1.49,4,1,5.64-3.27,3.74-2,1.19-3.1,3-3.65.49-2,1.7-.07.06-2.49,4.48L12.92,52,11.5,54.64l-.09,2.3-1,2.51L9,60.14,6.86,62.86l-1.35,3,.25,1.43-1.28,2.2L3,70.64l-.18,2-.17,1.77L3.47,73l15.37,0-.74-6.08,1-2.18,3.68-.39-.13-11,12.89.23V47l.07-.85v-.29l0-5.26,6.34-3.3,3.92-.68L49,35.37l1.5-2.27,4.59-1.8.17-3.38,2.27-.4,1.78-1.7L64.46,25l.72-1.8Z" transform="translate(0.08 -0.38)"/><path id="MG" class="cls-1" d="M264.08,207.17l1,1.71,1,2.64.63,4.84,1,1.89-.39,1.94-.7,1.19L265.32,219l-.74,1.2.75,3-.35,1.72-1.08.94-.25,3.47-1.54,4.8-1.94,5.71-2.43,7.95-1.5,5.9-1.77,5-3.2,1-3.42,1.82-2.26-1.1-3.12-1.54-1.08-2.27-.26-3.79-1.38-3.38-.36-3,.7-3,1.81-.72v-1.4l1.87-3.15.36-2.64-.91-2-.75-2.6-.31-3.77,1.37-2.29.53-2.58,2-.15,2.19-.83,1.46-.73,1.72-.06,2.24-2.31,3.23-2.48,1.18-2L257.5,212l1.67.48,2.16-2.79.08-2.4,1.3-1.79Z" transform="translate(0.08 -0.38)"/><path id="ML" class="cls-1" d="M21.82,100.53l1.32-.74.66-2.38,1.25-.09,2.74,1.13,2.21-.8,1.52.27.59-.9L47.86,97l.87-2.83-.68-.51L46.16,75.86l-1.9-18.28,6-.08,13.24,9.31L76.75,76l.94,2,2.44,1.19,1.82.67,0,2.63,4.36-.4v9.45l-2.15,2.72-.33,2.5-3.49.64L75,97.68l-1.46,1.43-2.51.16-2.52,0-1-.78-2.16.58-3.67,1.67L61,102l-3,1.8-.54,1-1.64.81-1.9-.54-1.08,1-.57,2.74-3.12,3.31.09,1.35-1.07,1.68.26,2.31-1.62.58-.91.5-.61-1.69-1.13.45-.68-.08-.72,1.16-3,0-1.09-.59-.51.36L36.88,117l.21-1.18-.49-.46-.84.39.15-1.29.81-1-1.61-1.66-.47-1.1-.87-.88-.79-.1-.94.55-1.27.54-1.08.86L28,111.32l-1.08-1-.66-.13-1,.53h-.62l-.23-1.46.18-1.24-.33-1.55-1.47-1.13L22,103Z" transform="translate(0.08 -0.38)"/><path id="MR" class="cls-1" d="M21.82,100.53l-2.59-2.77-2.37-3L14.25,93.7l-1.87-1.2-2.2,0-1.91.89-1.95-.36L5,94.39,4.63,92.2l1.1-2,.49-3.85-.44-4.07-.47-2.05.39-2.07-1-2-2.07-1.8L3.47,73l15.37,0-.74-6.08,1-2.18,3.68-.39-.13-11,12.89.23V47L50.27,57.5l-6,.08,1.9,18.28,1.89,17.75.68.51L47.86,97,32.11,97l-.59.9L30,97.65l-2.21.8-2.74-1.13-1.25.09-.66,2.38Z" transform="translate(0.08 -0.38)"/><path id="MW" class="cls-1" d="M205.26,203.39l-1.1,3,1.1,5.2,1.36-.06,1.42,1.3,1.64,2.9L210,221l-1.7.86-1.2,2.82-2.56-2.51-.29-2.86.82-1.88-.22-1.62-1.55-1-1.08.37L200,213.19l-2.07-1,1.19-3.72,1.24-1.39-.76-3.31.79-3.22.67-1.08-1-3.36-1.85-1.76,3.85.74.79,1.09,1.33,1.85Z" transform="translate(0.08 -0.38)"/><path id="MZ" class="cls-1" d="M205.26,203.39l3-.32,4.72,1.12,1-.51,2.74-.1,1.4-1.19,2.35.06,4.29-1.54,3.13-2.3.63,1.78-.16,4,.48,3.5.16,6.27.69,2L228.49,219,227,221.79l-2.5,2.52-3.58,1.55-4.43,2-4.43,4.4-1.52.76-2.74,2.93-1.61,1-.33,3,1.86,3.17.77,2.46.05,1.26.69-.21-.11,4.14-.63,2,.92.73-.58,1.77-1.64,1.53-3.24,1.45-4.72,2.33-1.72,1.6.33,1.83,1,.29-.34,2.3-3,0-.33-1.93-.59-1.95-.33-1.55.7-4.8-1-3-1.88-6,4.13-4.77,1-3,.59-.38.44-2.44-.63-1.23.17-3.08.77-2.85v-5.18l-2-1.3-1.87-.3-.85-1-1.82-.86-3.27.08-.25-1.51-.38-2.88L200,213.19l2.26,1.93,1.08-.37,1.55,1,.22,1.62-.82,1.88.29,2.86,2.56,2.51,1.2-2.82L210,221l-.34-5.2-1.64-2.9-1.42-1.3-1.36.06-1.1-5.2Z" transform="translate(0.08 -0.38)"/><path id="NA" class="cls-1" d="M133.76,274.58l-2.92-3.35L129.3,268l-.86-4.26-1-3.14L126.15,254l-.08-5.08-.51-2.3L124,244.89l-2-3.46-2.06-5-.86-2.6-3.19-4-.24-3.15,1.89-.77,2.35-.7,2.54.12,2.34,1.85.6-.29,15.91-.17,2.72,2,9.5.58,7.22-1.67,3.21-.93,2.54.23,1.55.93,0,.34-2.21.92h-1.19l-2.51,1.61-1.5-1.69-6.05,1.43-2.92.14-.12,14.8-3.86.14v28.54l-3.5,2.28-2.11.32-2.47-.84-1.76-.32-.66-1.9-1.55-1.22Z" transform="translate(0.08 -0.38)"/><path id="NE" class="cls-1" d="M78.06,111.26l.08-2.74-4.52-.9-.12-1.94-2.22-2.62-.52-1.84.31-2,2.51-.16L75,97.68l5.35-.35,3.49-.64.33-2.5,2.15-2.72V82l5.53-1.84L103.25,72l13.45-8.06,6.21,1.83,2.21,2.33,2.77-1.57,1,6.55,1.47,1.08.06,1.33L132,76.91l-.85,1.79-1.51,8.37-.21,5.32-5,3.83-1.69,5.32,1.63,1.49v2.58l2.52.09-.39,1.89-1.11.23-.13,1.27-.72.09-2.66-4.39-.92-.16-3.07,2.25-3-1.17-2.11-.24-1.14.57-2.3-.13L107,107.62l-2,.1-4.75-2.07-1.86,1-2-.07-1.47-1.51L91,103.55l-4.22.48-1,.87-.55,2.3-1.12,1.61-.28,3.56-3-2.29H79.37Z" transform="translate(0.08 -0.38)"/><path id="NG" class="cls-1" d="M103,139.53l-4.07,1.41-1.49-.21-1.51.88-3.14-.09-2.1-2.44-1.29-2.84-2.78-2.58-3,.05H80.16l.23-6.33-.1-2.5.74-2.49,1.21-1.21,1.9-2.45-.41-1.07.77-1.6-.88-2.36.15-1.32.28-3.56,1.12-1.61.55-2.3,1-.87,4.22-.48,3.94,1.5,1.47,1.51,2,.07,1.86-1,4.75,2.07,2-.1,2.31-1.71,2.3.13,1.14-.57,2.11.24,3,1.17,3.07-2.25.92.16,2.66,4.39.72-.09,1.56,1.59-.43.72-.21,1.32-3.3,3.08-1,2.53-.55,2.06-.84.88-.79,2.76-2.1,1.63-.61,2-.88,1.59-.36,1.63-2.7,1.32-2.21-1.61-1.48.06-2.34,2.3-1.14,0L104,136.76Z" transform="translate(0.08 -0.38)"/><path id="OM" class="cls-1" d="M300.65,73.88l-1.46,2.86-1.78-.22-.82,1L296,79.62l.48,2.76-.37.51-1.8,0-2.46,1.54-.38,2-.9.86-2.44,0-1.54,1,0,1.65-1.89,1.14-2.17-.39-2.63,1.38-1.81.23-1.28-2.85-3.07-6.78,11.78-4.14,2.61-8.36-1.8-3,.11-1.71,1.14-1.76V62l1.78-.84-.7-.59.32-2.8,2,0,1.76,2.94,2.19,1.55,2.88.55,2.32.78L301.91,66l1,1.4,1.41.54v.94l-1.43,2.51-.62,1.18ZM291,53.52l-.52.78-.74-1.48,1.14-1.48.49.38Z" transform="translate(0.08 -0.38)"/><path id="PS" class="cls-1" d="M209.13,24.43v2.82l-.58,1.35-1.85.62.17-1.2,1-.64-1-.51.82-3.08Z" transform="translate(0.08 -0.38)"/><path id="QA" class="cls-1" d="M269.05,58.45l-.26-3.14L269.85,53l1.07-.46,1.18,1.36.07,2.53L271.32,59l-1.09.31Z" transform="translate(0.08 -0.38)"/><path id="RW" class="cls-1" d="M189,162.58l1.56,2.2-.22,2.3-1.14.49-2.08-.25-1.2,2.22-2.39-.31.36-2.13.54-.3.15-2.32,1.13-1.09.95.4Z" transform="translate(0.08 -0.38)"/><path id="SA" class="cls-1" d="M237.52,93.52,237,91.79l-1.18-1.23-.3-1.63-2-1.47L231.41,84l-1.11-3.36-2.71-2.85-1.76-.69-2.59-4-.46-2.91.17-2.5L220.7,63l-1.84-1.67-2.12-.88L215.45,58l.21-1-1.09-2.24-1.15-1-1.53-3.24-2.39-3.53-2-3-2,0,.61-2.43.18-1.56.48-1.79,4.37.71,1.7-1.38.94-1.61,3-.63.65-1.51,1.3-.77-3.92-4.56,7.87-2.3.74-.7,4.73,1.25L234,30l11.07,9.09,7.3.35,3.5.43,1,2.13,2.78-.12,1.54,3.82,1.93,1,.67,1.54,2.68,1.84.23,1.8-.39,1.45.5,1.45L267.94,56l.52,1.41.59,1.06,1.18.85,1.09-.31.75,1.64.15,1,1.5,4.31,11.8,2.13.79-.89,1.8,3-2.62,8.36-11.77,4.14L262.4,84.24l-3.66,1.85-2.82,4.3-1.83.68-1-1.36-1.51.2-3.79-.4-.72-.41-4.53.09-1.06.37-1.62-1.06-1,2,.41,1.71Z" transform="translate(0.08 -0.38)"/><path id="SD" class="cls-1" d="M202.92,121.09l-.55-.08.07-2-.47-1.36-2-1.57-.47-2.86.47-3-1.82-.27-.27.89-2.36.21.94,1.16.34,2.39-2.16,2.18-2,2.86-2,.4-3.3-2.31-1.49.82-.4,1.15-2,.75-.14.82h-3.91l-.53-.82L176,120.4l-1.41.67-1.08-.33-2-2.31-.67-1.09-2.83.54-1.08,1.84-1,3.53-1.35.74-1.21.43-.32-.18-1.36-1.14-.25-1.23.64-1.64v-1.62l-2.27-2.48-.44-1.7.05-1L158,112.3l0-2.32-.82-1.54-1.38.23.39-1.47,1-1.67-.44-1.66,1.29-1.23-.82-.94,1-2.49,1.79-3,3.38.28-.19-16.25.05-1.74h4.51V70.16h46.58l1.27,4.12-.86.76.57,4.28,1.44,4.93,1.49,1,2.15,1.52-2,2.34-2.9.67L214.26,91l-.39,2.71-1.69,6,.42,1.61-.63,3.46-1.59,3.94-2.37,2-1.68,3-.4,1.63-1.86,1.11-1.16,4.14Z" transform="translate(0.08 -0.38)"/><path id="SL" class="cls-1" d="M24.7,131.64l-1.06-.29-2.83-1.59-2-2.1-.69-1.44-.48-2.92,2.1-1.73.45-1.1.67-.85,1.08-.09.92-.75H26l1.09,1.42.85,1.66L27.77,123l.63,1,0,1.45,1.08-.23-1.83,1.84-1.77,2.14-.21,1.14Z" transform="translate(0.08 -0.38)"/><path id="SN" class="cls-1" d="M4,104.64l-1.62-3.13-2-1.44,1.73-.76L4,96.47,5,94.39l1.35-1.31,1.95.36,1.91-.89,2.2,0,1.87,1.2,2.61,1.08,2.37,3,2.59,2.77L22,103l.78,2.3,1.47,1.13.33,1.55-.18,1.24-.57.23-2.14-.32-.29.45-.87.08-2.82-1-1.89,0-7.26-.17L7.51,109l-1.3-.13-2.08.65-.64-3.06,3.57.08.94-.56.71,0,1.45-.93,1.69.85,1.7.07,1.7-.9-.79-1.16-1.3.68-1.21,0-1.55-1-1.25.06-.88,1Z" transform="translate(0.08 -0.38)"/><path id="SO" class="cls-1" d="M270.32,112l-.09-1.1h-1.49l-1.86,1.37-2.08.4-1.81.59-1.25.08-2.24.14-1.4.72-2,.26-3.45,1.24-4.27.47-3.7,1h-1.95L241,115.54l-.77-1.64-1.28-.74-1.45,2.13-.85,1.41,1.45,2.18,1.44,1.9,1.5,1.41,12.84,4.69,3.3,0L246.1,138.63l-5.12.18-3.49,2.75-2.52.07-1.08,1.24-3.43,4.43,0,14.2,2.33,3.22.88-.92.91-2.06,4.29-4.72,3.66-3,5.87-3.87,3.93-3.16,4.62-5.33,3.35-4.38,3.37-5.75,2.43-5,1.89-4.4,1.1-4.28.83-1.44v-2.08Z" transform="translate(0.08 -0.38)"/><path id="SS" class="cls-1" d="M202.92,121.09l0,3.08-.58,1.2-2.09.1L199,127.71l2.42.28,2,1.92.68,1.57,1.8.91,2.32,4.27-2.66,2.58-2.42,2.33-2.41,1.8H197.9l-3.16.92-2.49-.88-1.62,1.07-3.45-2.6-.94-1.67-2.18.83-1.82-.26-1.05.66-1.76-.48-2.38-3.23-.63-1.24-2.93-1.55-1-2.35-1.63-1.7-2.64-2,0-1.28L166,126l-2.67-1.54,1.21-.43,1.35-.74,1-3.53,1.08-1.84,2.83-.54.67,1.09,2,2.31,1.08.33,1.41-.67,2.84.13.53.82h3.91l.14-.82,2-.75.4-1.15,1.49-.82,3.3,2.31,2-.4,2-2.86,2.16-2.18-.34-2.39-.94-1.16,2.36-.21.27-.89,1.82.27-.47,3,.47,2.86,2,1.57.47,1.36-.07,2Z" transform="translate(0.08 -0.38)"/><path id="SY" class="cls-1" d="M221.87,19.85l-7.68,5L209.81,23l-.07,0,.53-.7-.06-1.91,1-2.57L213.31,16l-.64-1.85-1.76-.25-.37-3.65,1-2,1.05-1.06,1-1.06.21-2.72,1.29,1L219.42,3l2.09.92h3.23l4.52-1.83,2.11.08,4.47-.77-2,3.06-2.14,1.2.37,3.53L230.56,15Z" transform="translate(0.08 -0.38)"/><path id="SZ" class="cls-1" d="M195.49,266.45l-.8,1.95-2.3.47-2.34-2.38,0-1.5,1.07-1.64.37-1.26,1.13-.31,2,.79.59,1.95Z" transform="translate(0.08 -0.38)"/><path id="TD" class="cls-1" d="M126.5,107.59l.39-1.89-2.52-.09V103l-1.63-1.49,1.69-5.32,5-3.83.21-5.32,1.51-8.37.85-1.79-1.63-1.43-.06-1.33-1.47-1.08-1-6.55,4-2.32,15.65,8.08,15.66,8,.19,16.25L160,96.23l-1.79,3-1,2.49.82.94-1.29,1.23.44,1.66-1,1.67-.39,1.47,1.38-.23.82,1.54,0,2.32,1.45,1.17-.05,1-2.49.68-2,1.61L152,121l-3.69,1.83-3.79-.25-1.11.37.39,1.39-2.05,1.37-1.66,1.54-4.94,1.51-1-.89-.65-.08-.72,1-3.24.3.61-1.07L129,125.36l-.55-1.64-1.71-.66-2.32-2.31.86-1.87,1.79.4,1.1-.28,2.2,0-2.14-3.61.14-2.64-.26-2.64Z" transform="translate(0.08 -0.38)"/><path id="TG" class="cls-1" d="M76.92,134.16l-3.16.84-.88-1.38-1-2.49-.32-1.95.87-3.55-1-1.44L71,121.08v-2.87l-1.64-2,.29-1.23,3.44.08-.5,2.09,1.2,1.17,1.36,1.39.15,1.94.79.81L76,131.46Z" transform="translate(0.08 -0.38)"/><path id="TN" class="cls-1" d="M106.82,34l-1.67-8.2-2.43-1.86,0-1.13L99.48,20l-.35-3.54,2.42-2.64.93-3.94-.62-4.6.79-2.51,4.28-2,2.75.58-.12,2.48,3.33-1.8.28.94-2,2.39,0,2.24,1.36,1.2L112,13l-2.58,2.38.74,2.57,2,.08,1,2.23,1.5.73-.23,3.57-1.91,1.33-1.21,1.47-2.69,1.77.41,1.89-.34,1.92Z" transform="translate(0.08 -0.38)"/><path id="TZ" class="cls-1" d="M202.68,161.86l.67.43,14.23,8,.27,2.27,5.63,3.9-1.81,4.83.23,2.22,2.52,1.43.11,1-1.08,2.37.23,1.2-.26,1.88,1.37,2.47,1.63,3.9,1.44.87-3.13,2.3-4.29,1.54-2.35-.06-1.4,1.19-2.74.1-1,.51-4.72-1.12-3,.32-1.1-5.4-1.33-1.85-.79-1.09-3.85-.74L196,193.12l-2.49-.66-1.57-.66-1.64-1-2.12-4.95-2.27-2.2-.79-2.28.39-2-.7-3.6,1.62-.18,1.43-1.42,1.52-2,1-.81,0-1.27-.85-.89-.23-1.54,1.14-.49.22-2.3-1.56-2.2,1.38-.46,4.3,0Z" transform="translate(0.08 -0.38)"/><path id="UG" class="cls-1" d="M194.68,162.17l-4.3,0-1.38.46-2.34,1.21-.95-.4,0-2.94.91-1.49.22-3.13.83-1.81,1.5-2,1.51-1,1.26-1.39L190.4,149l.23-4.56,1.62-1.07,2.49.88,3.16-.92h2.77l2.41-1.8,1.86,2.72.46,2,1.73,4.48-1.43,2.84-1.93,2.58-1.13,1.58,0,4.13Z" transform="translate(0.08 -0.38)"/><path id="YE" class="cls-1" d="M278.07,92.29l-2.84,1.09-.76,1.81-.09,1.38-3.91,1.71-6.27,1.88L260.68,103l-1.73.22-1.17-.24-2.3,1.67-2.5.77-3.29.21-1,.23-.85,1.06-1,.29-.61,1-1.94-.09-1.26.54-2.71-.2-1-2.34.12-2.19-.65-1.19-.76-3-1.13-1.66.78-.19-.4-1.85.48-.79-.18-1.77,1.73-1.3-.41-1.71,1-2,1.62,1.06,1.06-.37,4.53-.09.72.41,3.79.4,1.51-.2,1,1.36,1.83-.68,2.82-4.3,3.66-1.85,11.32-1.58,3.07,6.78Z" transform="translate(0.08 -0.38)"/><path id="ZA" class="cls-1" d="M193.33,277.61l-.77.65-1.66,2.28-1.1,2.32-2.22,3.26-4.44,4.74-2.77,2.77-3,2.12-4.11,1.82-2,.24-.5,1.31-2.39-.7-1.94.9-4.26-.91-2.38.58-1.62-.25-4.05,1.86-3.35.75-2.43,1.8-1.78.11-1.66-1.69-1.33-.09-1.69-2.11-.19.65-.52-1.26,0-2.75L140,292.89l1.27-.85-.11-3.53-2.57-4.28-2-3.83h0l-2.81-5.82,1.88-2.19,1.55,1.21.66,1.9,1.76.33,2.47.84,2.11-.32,3.5-2.28V257.93l1.06.64,2.33,4.11-.36,2.65.87,1.53,2.82-.44,2-1.95,1.86-1.31,1-2.07,1.91-1,1.66.53,1.87,1.21,3.2.21,2.51-1,.4-1.34.69-2.06,2.13-.35,1.18-1.61,1.31-2.84,3.52-3.17,5.56-3.11,1.6,0,1.9.72,1.32-.51,2.08.42,1.88,6,1,3-.7,4.8.33,1.56-2-.79-1.14.3-.37,1.27L190,265l0,1.51,2.34,2.38,2.3-.48.8-1.94,3,0-1,3.2-.46,3.67-1,2Zm-10-1.35-1.71-1.37-1.84.91-2.13,1.75-2.09,2.84,2.94,3.48,1.41-.45.72-1.45,2.19-.7.67-1.47,1.2-2.19Z" transform="translate(0.08 -0.38)"/><path id="ZM" class="cls-1" d="M198.19,194.31l1.85,1.76,1,3.36-.67,1.08-.79,3.22.76,3.31-1.24,1.39-1.19,3.72,2.07,1-11.92,3.32.38,2.88-3,.55-2.23,1.62-.48,1.41-1.4.32-3.42,3.35-2.17,2.65-1.33.09-1.27-.47-4.39-.45-.71-.3,0-.34-1.55-.93-2.54-.23-3.21.93L158.16,225l-2.64-3.33.18-12.82,8.17.05-.33-1.38.58-1.5-.69-1.87.45-1.93-.42-1.23,1.36.1.22,1.23,1.84-.09,2.49.36,1.31,1.81,3.15.56,2.4-1.26.88,2.09,3,.56,1.44,1.7,1.62,2.2,3,0-.33-4.31-1.08.73L182,205.19l-1.06-.71.49-4,.69-4.69-.88-1.74,1.12-2.52,1.06-.47,5.27-.67,1.54.4,1.64,1,1.57.66,2.49.66Z" transform="translate(0.08 -0.38)"/><path id="ZW" class="cls-1" d="M192,247.22,190,246.8l-1.32.5-1.9-.71-1.6-.05-2.5-1.9-3-.64-1.15-2.66v-1.47l-1.68-.45-4.45-4.55-1.23-2.39-.79-.74-1.51-3.28,4.39.45,1.27.47,1.33-.09,2.17-2.65,3.42-3.35,1.4-.32.48-1.41,2.23-1.62,3-.55.25,1.51,3.27-.08,1.82.86.85,1,1.87.3,2,1.3v5.18l-.77,2.85-.17,3.08.63,1.23-.44,2.44-.59.38-1,3Z" transform="translate(0.08 -0.38)"/></svg>