<svg id="Calque_1" data-name="Calque 1" xmlns="http://www.w3.org/2000/svg" viewBox="0 0 441.54 651.45"><defs><style>.cls-1{fill:#ccc;stroke:#fff;stroke-width:0.5px;}</style></defs><path id="AR" class="cls-1" d="M291.6,648.91l-2.66.24-1.43-1.72-1.69-.13h-3V636.72l1.08,2.15,1.4,3.53,3.65,2.86,3.92,1.21Zm1.5-122.44,1.65,2.18,1.09-2.43,3.2.13.45.64,5.16,4.94,2.29.47,3.43,2.26,2.88,1.2.41,1.36L310.9,542l2.82.85,3.15.48,2.22-.51,2.54-2.39.46-2.75,1.39-.59,1.41,1.79-.06,2.49-2.36,1.73-1.88,1.28-3.17,3.08-3.74,4.37-.7,2.59-.75,3.37,0,3.29-.61.75-.22,2.16-.19,1.76,3.56,2.92-.38,2.36,1.75,1.51-.14,1.7-2.7,4.52-4.16,1.91-5.62.75-3.08-.36.59,2.14-.57,2.72.51,1.85-1.68,1.3-2.87.52-2.7-1.35-1.08,1,.39,3.71L295,594l1.54-1.19.83,2L294.74,596l-2.25,2.39-.41,3.9-.67,2.11h-2.64l-2.2,2-.81,3,2.76,3,2.68.83-1,3.73-3.31,2.37-1.83,5-2.55,1.72-1.15,2.06.9,4.64,1.87,2.63-1.18-.23-2.6-.72-6.78-.6-1.16-2.64.05-3.33-1.86.29-1-1.6-.25-4.6,2.15-1.88.89-2.68-.32-2.11,1.48-3.52,1-5.35-.3-2.33,1.22-.75-.3-1.48-1.3-.78.92-1.63L273.61,598l-.66-4.39,1.13-.77-.47-4.54.65-3.76.75-3.22,1.68-1.3-.85-3.46v-3.22l2.12-2.26-.06-2.87,1.6-3.31v-3.09l-.73-.61-1.29-5.69,1.72-3.34-.26-3.12,1-2.89,1.84-3,2-2-.84-1.22.58-1-.09-5.15,3.06-1.5,1-3.16-.34-.76,2.34-2.72Z" transform="translate(0.25 0.25)"/><path id="BO" class="cls-1" d="M299,526.35l-3.2-.13-1.09,2.43-1.65-2.18-3.67-.73-2.33,2.72-2,.41L284,524.72l-1.51-3.34.88-2.87-1.47-1.25-.37-2.12-1.38-2L281.9,510l-1.21-2.44.65-1-.51-1.07,1.1-1.44.05-2.44.14-2,.61-1-2.43-4.58,2.09.24,1.44-.06.63-.86,2.45-1.15,1.48-1.06,3.66-.48-.29,2.12.34,1.09-.22,1.9,3,2.55,3.14.48,1.1,1.06,1.9.57,1.16.83,1.76,0,1.63.85.12,1.66.55.84,0,1.25-.82,0,1.08,3.37,5.37.12-.41,1.68.3,1.15,1.53.82.67,1.82-.5,2.32-.77,1.29.27,1.69-.88.61-.05-.91-2.61-1.52-2.6,0-4.89.86-1.34,2.61-.07,1.61L299.49,527Z" transform="translate(0.25 0.25)"/><path id="BR" class="cls-1" d="M313.68,551.79l3.74-4.37,3.17-3.08,1.88-1.28,2.36-1.73.06-2.49-1.41-1.79-1.39.6.55-1.79L323,534v-1.68l-1-.55-1.06.49-1-.13-.33-1.18-.26-2.77-.53-.9-1.89-.82-1.14.59-3-.58.18-4.06-.83-1.66.88-.61-.27-1.69.77-1.29.5-2.32-.67-1.82-1.53-.82-.3-1.15.41-1.68-5.37-.12-1.08-3.37.82,0,0-1.25-.55-.84-.12-1.66-1.63-.85-1.76,0-1.16-.83-1.9-.57-1.1-1.06-3.14-.48-3-2.55.22-1.9-.34-1.09.29-2.12-3.66.48-1.48,1.06-2.45,1.15-.63.86-1.44.06-2.09-.24-1.58.49-1.27-.33.18-4.3-2.3,1.67-2.47-.08L271.8,490l-1.86-.16.59-1.21L269,486.93l-1.17-2.53.74-.51V482.7l1.69-.81-.27-1.51.71-1,.21-1.3,3.2-1.91,2.3-.53.38-.42,2.52.13,1.26-7.65.07-1.21-.44-1.59-1.25-1,0-2,1.58-.46.56.29.09-1.07-1.64-.29,0-1.74,5.46.06.93-1,.78.88.54,1.65.53-.35,1.55,1.48,2.17-.18.55-.86,2.08-.65,1.16-.45.32-1.18,2-.8-.16-.58-2.37-.24-.39-1.76.11-1.87-1.25-.72.52-.26,2.08.36,2.23.7.81-.66,2-.44,3.14-1,1-1.07-.38-.79,1.46-.12.66.64-.37,1.23,1,.42.65,1.3-.78,1-.45,2.38.72,1.41.2,1.29,1.73,1.3,1.37.14.31-.54.89-.12,1.27-.49.91-.74,1.55.23.69-.1,1.52.23.25-.57-.47-.55.28-.81,1.13.25,1.33-.29,1.6.6,1.23.57.87-.76.62.12.39.79,1.34-.2,1.07-1.06.86-2.06,1.66-2.55,1-.13.69,1.54,1.57,4.88,1.5.46.08,1.92-2.11,2.29.87.84,5,.44.1,2.79,2.13-1.82,3.53,1,4.65,1.7,1.37,1.63-.46,1.54,3.26-.86L359,471.5l4.19-.11,4.14,2.31,3.58,3.13,2.16.8,2.4.12,1,.88,1,3.57.47,1.69-1.12,4.66-1.43,1.84-3.95,3.94-1.79,3.21L367.52,500l-.7.06-.79,2.1.2,5.4-.78,4.48-.3,1.93-.88,1.15-.5,3.94L360.93,523l-.48,3.09-2.27,1.31-.66,1.81h-3l-4.41,1.17-2,1.35-3.14.89-3.3,2.44-2.37,3.06-.41,2.32.47,1.73-.53,3.18-.63,1.55-2,1.75-3.11,5.68-2.47,2.59-1.91,1.54-1.27,3.16-1.86,1.91-.77-1.89,1.23-1.58-1.62-2.25-2.2-1.82-2.89-2.09-1,.1-2.81-2.5Z" transform="translate(0.25 0.25)"/><path id="BS" class="cls-1" d="M257.86,395.2l-.69.16-.71-1.76-1-.89.61-1.95.84.12,1,2.55Zm-.8-8.69L254,387l-.19-1.15,1.31-.25,1.85.09Zm2.3,0-.49,2.21-.51-.4,0-1.62-1.25-1.23v-.36Z" transform="translate(0.25 0.25)"/><path id="BZ" class="cls-1" d="M225.31,413l0-.43.34-.14.5.35,1-1.77.53,0v.43h.53l0,.8-.46,1.27.25.45-.29,1,.17.28-.32,1.47-.55.77-.51.1-.56,1h-.83l.22-3.28Z" transform="translate(0.25 0.25)"/><path id="CA" class="cls-1" d="M198.93,96.23l-.23-5.9,3.63.58,1.64,1,3.35,4.92-.76,5-4.15,2.77-2.28-3.12Zm13.21,12.65.33-1.49-2-2.45-5.65-.2.75,3.68,5.25.83Zm36.35,47,3.08,5.1.82.58,3.06-1.28,3,.21,3,.27-.25-2.64-4.84-5.38L250,151.61l-1.35.67Zm-65.43-62.7-2.7,4.19,6.24.52,4.61,4.43,4.58,1.5-1.09-5.68-2.15-6.72L185,86l-5.5-2,.2,5.69ZM209,82.89l5.13-.11-2.22,4,0,5.3,3,5.75,5.81,1.77,5-1,5.18-10.73,3.85-4.45-3.38-5-2.21-10.64-4.6-3.19L219.73,61l-3.58-9.57-6.52.94,1.22,4.15L208,57.72,206,63l-1.95,7.46,1.78,7.26Zm-63.75,53.38,3.92,2,12.67-1.3L156,141.7l.36,3.43,4.26-.24,7.08-4.58,9.49-1.67,1.71-5.22-.49-5.57-2.94-.5-2.5,1.93-1.1-4.13-.94-5.7L168,118l-2.57,4.41,4,11.05-4.9-.85-5-6.79-7.89-4L149,125.18Zm22.56-42.06-3.64-2.9-1.51-.66-2.87,4.28-.05,2h4.66Zm-1.47,12.35.94-4-4-2.13-4.09,1.39-2.27,4.26,4.16,4.21Zm29.1,33.24,4.63-1.1,1.27-8.26-.08-5.94-2.15-5.56-.21,1.6-4-.7-4.22,4.08-3-.37.18,8.93,4.6-.87-.06,6.46Zm-3.28,45.61-5.06-3.93-4.71-4.21-.87-6.18-1.76-8.92-3.14-3.84-2.79-1.55-2.47,1.42,2,9.58-1.41,3.73-2.3-9-2.56-3.11-3.17,4.81L160,159.48l-6.24,2.87,1.4-4.46L152.28,156l-7.51,5.84-2,3.71-2.35,6.77,4.89,2.32,4.33-.12L143.18,178l1.48,3.13,4,.17,6-.67,5.42,2L156.39,184l-3.95-.37-4.33,1.41-1.86.87,3.45,6.36,2.49-.88,3.83,2.14,1.52,3.65,5-.72,7.1-1.16,5.26-2.65,3.26-.48,4.83,2.12,5.07,1.22.95-2.86-1.79-3,4.6-.64Zm7.74-1-2,3.53-2.47,2.49,3.83,3.54,2.29-.85,3.78,2.36,1.74-2.74-1.71-3-.84-1.52-1.68-1.46ZM182.25,155l-2.13-2.17-3.76.39-1,1.39,4.37,6.75Zm28.69,13.17,3-6.92,3.35-1.85,4.19-8.74-5.36-2.47-5.84-.36-2.78,2.77L206,154.81l0,4.82,1.75,8.19Zm17.15-23,5.76-.19,8-1.61,3.59,1.27,4.18-2.25,1.75-2.84-.63-4.52-3-4.23-4.56-.8-5.7,1-4.46,2.44-4.09-.94-3.78-.5-1.79-2.7-3.21-2.61.64-4.44-2.42-4-5.52,0-3.12-4-5.78-.8-1.05,5.1,3.25,3.74,5.8,1.46,2.81,5.09.35,5.6,1,6,7.45,3.42Zm-89-18.27,5.22-5,2.61-.59,2.17-4.23.38-9.77-3.85,1.92-4.3-.18-5.75,8.19-4.76,9,3.8,2.51Zm72.18,16.17,1.53-4.14-1-3.45-2.44-3.92-4,3-1.49,4.92,3.4,2.79Zm-8.31,11.44-.73-2.88-5,1.26-3.34-2.1-3.32,4.8,3.09,6.28-5.73-1.17,0,3,7,7.05,1.94,3.38,2.7.73,4.6-3.42.5-8.21-4.24-4.07ZM129,308.23l-1.16-2.35-2.8-1.77-1.38-2.05-1-1.5-2.63-.47-1.72-.66-3-1-.24,1,1.08,2.38,2.89.79.5,1.23,2.51,1.5.84,1.51,4.61,1.92Zm121.7-77.63-2-2.11-2.06.5-.25-3.06-3.21-2-3.07-2.27-1.63-1.75-1.44,1-.52-3-2-.55-1,6.13-.36,5.11-2.44,3.13,3.8-.6,1,3.65,4-3.23,2.78-3.37,1.57,2.86,4.37,1.51ZM130.12,178.05l7.38-4.17V170l3.48-6.4,6.87-6.69,3.53-2.47-3-4.2-2.72-3-7.17-.58-4-2.15L125,146.18l2.74,6.23-2.43,6.43-1.94,6.87-1.2,3.85,6.47,4.7Zm134.24,27.31.31-1,0-3.18-2.19-2.08-2.57,1-1.19,4.16.7,3.56,3.15-.36Zm23.82,7.54,4.4,6.61,3.46,2.85,4.92-7.87.87-4.93-4.41-.48-4-6.69-4.45-1.64-6.61-5,5.15-3.63-2.65-7.55-2.44-3.35-6.77-3.35-2.92-5.55-5.21,2-.36-3.86-3.87-4.33L257,161.44l-2.65,3.71-5.55,2.67.42-6.07-4.81-10.05-7.1,4.06-2.6,7.7-2.2-5.92,2.06-6.37-7.24,2.65-2.88,4-2.16,8.42.89,9.05,4,0-2.93,3.93,2.33,3,4.55,1.25,5.93,2.42,10.2,1.82,5.09-1,1.5-2.42,2.21,2.79,2.47.46,3,5-1.8,2,5.68,2.62,4.3,3.68,1.08,2.55.77,3.24-3.63,6.93-1,3.44.94,2.42-5.77.86-5.27.12L255,225.16l2.37,2.22,8.11-1,0-1.89,4.08,3.15,4.18,3.28-1,1.77,3.4,3,6,3.54,7.6,2.39-.45-2.09-2.92-3.67-4-5.38,7,5,3.53,1.66,1-4.44-1.83-6.29L291,224.67l-3.81-3-2.95-3.91.36-3.94ZM222.35,51.34l2.33,7.29,5,5.88,9.81-1.09,6.31,2-4.37,6-2.22-1.77L231.51,69l1.19,8.31,4,6-.79,5.2-5,3.46-2.27,5.47,4.55,2.65,3.82,8.54-7.49-5.7-1.71.94,1.38,9.38L224,116.08l.36,5.85,5.3.63,4.17,1.44,8.24-1.85,7.32,3.27,7.49-7.19-.06-3-4.79.48-.39-2.84,3.92-3.83,1.33-5.15L261.2,100l2.66-4.76-2.32-7.1,1.94-2.65-3.86-1.89L268.11,82l1.78-3.14,5.79-2.61,4.79-13.47L285,57.85l6.62-11.13-6.11.1,2.54-4.3,6.78-4,6.84-8.91.13-5.73-5.14-6-6-2.93-7.49-1.82-6.07-1.49-6.07-1.5-8.1,4-1.49-2.53-8.57,1-5,2.58-3.7,3.65L242,30.5l-3-6-3.48-1.14-4.12,8-5.5,3.35-3.27.67-4.17,3.83.61,6.65Zm74.4,265-1-2-1.06,1.26.7,1.36L299,318.7l1-.27,1.38-1.65-2.6.11Zm-57-77.86.61,1.63,2,.14,3.28-3.34.06-1.19-3.85-.06Zm62.13,66.44-2.87-1.8L295.32,302l-1,.37,2.61,2,3.63,1.35,1.37-.08Zm24.89,4.79-.36-2.23-2,.72.86-3.11-2.79-1.32-1.29,1-2.49-1.18,1-1.51-1.88-.93L316,302.66l1.85-3.82,1.5-2.8.54-1.22-1.3-.2-2.43,1.55-1.74,2.53-2.9,6.91-2.35,2.56,1.22,1.15-1.75,1.47.43,1.23,5.44.13,3-.25,2.69,1-2,1.94,1.67.14,3.25-3.58.78.53-.6,3.37,1.84.77,1.27-.15,1.18-3.62Zm-21.2,4.77L302.76,319l-4.64.58-3.64-2-.91-3.07-.89-4.47,2.65-2.82-2.48-2.09-4.2.42-5.88,3.53-4.5,5.45-2.38.68,3.22-3.81,4.05-5.57,3.57-1.9,2.35-3.11,2.9-.31,4.21,0,6,.91,4.74-.7,3.53-3.63,4.62-1.58,2-1.58,2-1.71-.21-5.19-1.13-1.77-2.18-.63-1.11-4-1.8-1.55-4.47-1.27L305.71,275,302,272.2l1.13-3.2-3.1-6.26-3.66-6.89-2.18-5-1.85,2.61-2.69,6.06-4.06,3-2-3.16L281,258.5l-.93-7,.08-4.8-5-.44-.85-2.26-3.45-3.44-2.61-2-2.33,1.58-2.88-.58-4.81-1.65-1.95,1.4.94,9.18,1.22,5.11-3.31,5.75,3.41,4,1.9,4.44.23,3.42-1.55,3.5-3.18,3.46-4.49,2.28,2,2.53,1.46,7.41-1.51,4.67-2.16,1.46L247,292.24l-2-5.17-.87-4.76.46-4.19-3-.48-4.63-.28-3-2.08-3.51-1.38-2-2.38-2.8-1.93-5.21-2.23-3.93,1-1.31-3.95-1.26-5-4.12-.9.16-6.41,1.08-4.48,3-6.6,3.43-4.9,3.27-.77.18-4,2.22-2.68,4-.43,3.25-4.39.82-2.9,2.7-5.72.84-3.5,2.9,2.11,3.9-1.08,5.49-5,.35-3.54-2-4,2.08-4.06-.17-3.87-3.76-4-4.14-1.19-4-.62-.15,8.71-2.05,6.56-2.93,5.3-2.71-4.95.84-5.6-3.35-5-3.75,6.09v-8L216.16,188l2.48-4-3.8-9.59-2.84-3.9-3.7-1.44L205,175.52l-.23,9.35,3.27,3.29,3,4.91-1.27,7.7-2.26-.2-1.78,5.89,0-7-4.35-2.58-2.49,1.33.32,4.68-4.09-.18-4.35,1.17-4.95-3.35-3.13.6L179.89,197l-2.27-1.84-2.24.78-3.41.35-1.81,2.61,2.86,3.19L170,205.82l-3-4.43-2.39,1.31-7.57.87L152,202l3.94-3.74-3.78-3.9-2.75.5-3.86-1.32L139,190.63l-4.29-3.38-3.39-.46-1.06,2.35-3.45,1.31-.38-6.15-3.73,5.51-4.74-7.32L116,181.6l-.62,3.9-2.1,1.9L111.33,184l-4.59,2.05-4.2,3.55-4.17-1L95,191.13l-2.46,3.27-2.93-.72-4.41-3.8L80,188l0,27.65V251l2.76.16,2.73,1.56,2,2.44,2.49,3.59,2.72-3,2.82-1.8,1.49,2.86L98.78,259l2.56,2.42,1.76,3.8,2.86,5.88,4.77,3.2.08,3.13-1.56,2.35.06,2.48,3.39,3.45.49,3.76,3.59,2-.4,2.79,1.56,4L123,300l2,1.88,5.43,4.23h78v-1.64l1,0,.5,2.34.87.72,2,.26,2.86.67,2.72,1.3,2.27-.54,3.45,1.09,1.14-1.66,1.59-.66.62-1,.63-.55,2.61.86,1.93.1.67.56.94,2.39,3.15.62-.5,1.18,1.11,1.22-.48,1.56,1.18.51-.59,1.37.75.13.53-.6.55.9,2.1.5,2.14,0,2.27.41,2.51.78.91,1.26,1.82,3-.9,1.3-2.28-.54L247,321.56l.36,2.49L246,326.22l.15,1.84-.23,1.07-1.82,1.27-1.32,2.09-.61,1.32,1.53.24,2.09-1.2,1.22-1.06.83-.18,1.55.39.74-.6,1.37-.48,2.44-.47h0l-.25-1.15-.13.05-.86.2-1.11-.37.83-1.31.86-.46,2-.57,2.37-.52,1.24.73.78-.85.89-.54.6.29,0,.06,2.87-2.73,1.27-.73,4.26,0h5.16l.28-1,.9-.2,1.19-.61,1-1.82.85-3.15,2.14-3.1.93,1.08,1.88-.7,1.25,1.19v5.53L287,322l3.12-.49,4.48-.13-4.86,3.27.1,3.29,2.13.28,3.13-2.79,2.79-1.59,6.21-2.35,3.46-2.61-1.81-1.46ZM251.9,243.37l1.1-3.12-.71-1.24-1.15-.13-1.08,1.81-.13.41.74,1.77ZM109.25,279.8h0l1.56-2.35Z" transform="translate(0.25 0.25)"/><path id="CL" class="cls-1" d="M282.81,636.73v10.56h3l1.69.13-.93,2-2.41,1.53-1.37-.16-1.66-.4-2-1.48-2.94-.71-3.53-2.71-2.86-2.57-3.86-5.25,2.31,1,3.94,3.13,3.72,1.71,1.44-2.18.91-3.2,2.59-1.91Zm1.17-112,1.09,4.15,2-.41.34.76-1,3.16-3.05,1.51.09,5.14-.59,1,.84,1.22-2,2-1.83,3-1,2.89.26,3.12-1.73,3.34,1.29,5.69.73.61v3.09l-1.6,3.31.06,2.87-2.12,2.26v3.22l.85,3.46-1.68,1.3-.75,3.23-.66,3.75.48,4.54-1.13.77.65,4.39,1.27,1.46L274,601.1l1.3.79.3,1.47-1.23.75.3,2.33-1,5.35-1.49,3.52.33,2.11-.89,2.68L269.41,622l.24,4.6,1,1.6,1.87-.29-.05,3.34,1.16,2.63,6.77.61,2.6.71-2.49,0-1.35,1.12-2.53,1.67-.46,4.38-1.18.11-3.17-1.53-3.21-3.25h0L265.12,635l-.88-2.87.79-2.62-1.41-2.94-.36-7.34,1.19-4,3-3.18-4.26-1.19,2.67-3.57.95-6.56,3.12,1.37,1.47-8-1.89-1-.87,4.75-1.77-.54.88-5.42,1-6.84,1.28-2.48-.8-3.5-.23-4,1.18-.12,1.72-5.59,1.94-5.44,1.18-5-.64-4.92.83-2.67-.33-3.95,1.64-3.87.5-6,.9-6.37.88-6.75-.2-4.87-.59-4.16,1.44-.74.75-1.51,1.38,2,.37,2.12,1.47,1.25-.88,2.87Z" transform="translate(0.25 0.25)"/><path id="CO" class="cls-1" d="M263.92,463.81l-1.2-.66-1.38-.92-.8.44-2.37-.39-.69-1.2-.52.05-2.81-1.59-.38-.87,1-.21-.12-1.39.65-1,1.39-.19,1.18-1.75,1.08-1.47-1-.66.53-1.62-.63-2.56.6-.73-.44-2.37-1.13-1.5.35-1.36.91.2.53-.84-.66-1.66.35-.41,1.44.09,2.11-2,1.15-.3,0-.93.52-2.39,1.61-1.32,1.76-.05.22-.6,2.2.24,2.2-1.43,1.1-.64,1.36-1.37,1,.17.73.75-.54,1-1.8.48-.71,1.42-1.09.81-.81,1.05-.35,2-.77,1.66,1.44.19.36,1.29.62.62.22,1.13-.33,1,.1.59.69.24.67,1,3.6-.27,1.63.36,2,2.41,1.13-.3,2,.15,1.6-.32,1,.49-.51,1.5-.62.94-.22,2,.56,1.85.8.83.1.63-1.43,1.39,1,.61.75,1,.85,2.78-.53.35-.54-1.65-.78-.88-.93,1-5.46-.06,0,1.74,1.64.29-.09,1.07-.56-.29-1.58.46,0,2,1.25,1,.44,1.59-.07,1.21-1.26,7.65-1.4-1.49-.84-.06,1.81-2.84-2.15-1.31-1.68.24-1-.48-1.55.74-2.08-.35-1.66-2.92-1.3-.72-.89-1.32-1.86-1.32Z" transform="translate(0.25 0.25)"/><path id="CR" class="cls-1" d="M242.63,440.4l-1.52-.63-.57-.59.32-.49-.1-.62-.78-.68-1.1-.55-1-.36-.18-.83-.74-.51.18.83-.56.67-.64-.78-.9-.28-.38-.57,0-.86.37-.9-.79-.4.64-.54.42-.37,1.85.75.64-.37.89.24.47.58.82.19.68-.6.7,1.54,1.09,1.14,1.32,1.21-1.09.25,0,1.14.58.41-.42.34.11.51-.23.57Z" transform="translate(0.25 0.25)"/><path id="CU" class="cls-1" d="M244.59,396.94l2.42.22,2.2,0,2.63,1,1.12,1.11,2.62-.34,1,.71,2.38,1.86,1.74,1.35.92,0,1.68.61-.21.84,2.07.12,2.12,1.22-.33.69-1.87.38-1.89.15-1.93-.24-4,.29,1.88-1.66L258,404.5l-1.81-.2-1-.86-.67-1.7-1.58.11-2.61-.8-.85-.63-3.65-.47-1-.59,1-.75-2.75-.16-2,1.57-1.16,0-.41.74-1.38.33-1.2-.29,1.48-.93.6-1.08,1.27-.68,1.43-.59,2.13-.29Z" transform="translate(0.25 0.25)"/><path id="DO" class="cls-1" d="M274.18,407.35l.35-.51,2.19,0,1.66.76.74-.08.51,1,1.54-.06-.1.88,1.25.11,1.38,1.08-1,1.2-1.33-.64-1.29.12-.93-.14-.5.54-1.08.18-.42-.72-.93.43-1.12,2-.73-.46-.14-.84.06-.8-.72-.88.68-.5.22-1.13Z" transform="translate(0.25 0.25)"/><path id="EC" class="cls-1" d="M250.1,472.87l1.49-2.08-.61-1.22-1.07,1.3-1.68-1.23.57-.78-.47-2.53,1-.42.51-1.74,1.07-1.79-.2-1.14,1.54-.59,1.92-1.11,2.81,1.59.52-.05.69,1.2,2.37.39.8-.44,1.38.92,1.2.66.39,2.11-.87,1.81-3.06,2.92-3.37,1.1-1.72,2.43-.53,1.88-1.59,1.15L252,475.8l-1.14-.3-1.15.22-.08-1,.8-.66Z" transform="translate(0.25 0.25)"/><path id="FK" class="cls-1" d="M303.66,633.13l3.36-2.69,2.38,1.12,1.69-1.79,2.24,2-.84,1.58-3.79,1.36-1.26-1.59-2.38,2Z" transform="translate(0.25 0.25)"/><path id="GF" class="cls-1" d="M327.89,456.41l-1.07,1.06-1.34.2-.39-.79-.62-.12-.87.76-1.23-.58.71-1.19.25-1.27.48-1.19-1.09-1.65-.22-1.91,1.46-2.4,1,.3,2.07.67,3,2.35.46,1.15-1.66,2.55Z" transform="translate(0.25 0.25)"/><path id="GL" class="cls-1" d="M344.13,23.91l9.42-13.61,9.84,1.07L367,2.42,376.87,0l22.4,3.15,17.54,18.59-5.18,8.31L400.9,31l-15.09,2,1.41,3.64,9.93-2.24,8.44,6.91L411,35.19l2.33,7.15-3.08,11,7.14-6.93L431,38.83l8.41,3.81L441,50.76,429.59,63.42,428,67.32l-9,2.86,6.49.79-3.28,11.51L420,92.07l.09,15.26,3.37,8.34-4.38.51-4.61,3.88,5.17,6.3.66,9.62-3,1,3.63,9.15-6.22.75L418,151l-.92,3.5-4,1.52-3.9,0,3.51,6.48,0,4.13-5.55-3.83-1.44,2.49,3.78,2.29,3.68,5.47,1.06,7-5,1.62-2.16-3.26-3.47-5,1,5.87-3.26,4.41,7.4.35,3.86.45-7.51,7-7.63,6.13-8.2,2.61-3.09,0-2.9,2.87-3.9,7.63-6,4.89-1.94.28-3.74,1.68-4,1.59-2.4,4.12,0,4.56-1.41,4.16-4.58,5,1.13,4.71-1.26,4.85-1.43,5.56-4,.34-4.13-4.63-5.61,0-2.72-3.18-1.87-5.8-4.86-7.67-1.42-4.16-.38-5.89-3.89-6.27,1-5.17-1.87-2.53,2.77-8.65,4.22-2.85,1.11-3.26.59-6.27-3.2,2.87-1.53,1.19-2.52,1.14-3.44-2.61-.19-5.55,1.1-4.48,2.6-.12,5.72,2.25-4.82-5.43-2.51-3L321,173.68l-2.34-2.2,3.13-8.5-1.7-3.53-2.23-6.74-3.37-10.91L311,137.62l0-4.62-7.53-6.69-5.95-.85-7.49.47-6.84.86L279.92,123l-4.87-7.66,7.36-4,5.65-.68-12-3.37-6.32-5.43.38-5.34,10.62-6.87L291,82.56l1.08-5.63-7.56-5.77L287,64.52l9.71-12.33,4.08-2-1.17-8.57,6.64-5.24,8.62-3.21,8.62-.18,3.06,6.3L334,28l6.7,7.78,3.93,1.59,5.83,6.41L343.75,33Z" transform="translate(0.25 0.25)"/><path id="GT" class="cls-1" d="M222.64,424.75l-1.44-.5-1.75-.05-1.28-.57-1.51-1.18.07-.84.32-.68-.39-.54L218,418h3.59l.08-1-.46-.18-.31-.63-1-.67-1-1h1.27v-1.65h2.62l2.59,0,0,2.31-.22,3.28h.83l.92.53.24-.44.82.37-1.28,1.11-1.32.8-.2.56.22.57-.58.73-.66.17.15.34-.52.32-1,.72Z" transform="translate(0.25 0.25)"/><path id="GY" class="cls-1" d="M307.7,440l1.84,1,1.73,1.83.08,1.45,1.06.07,1.5,1.36,1.11,1-.45,2.52-1.7.73.15.65-.52,1.45,1.25,2h.89l.37,1.57,1.72,2.42-.69.1-1.55-.23-.91.74-1.27.49-.89.12-.31.54-1.37-.14-1.73-1.3-.2-1.29-.72-1.41.45-2.38.78-1-.65-1.3-1-.42.37-1.23-.66-.64-1.46.12-1.89-2.12.76-.77-.06-1.3,1.73-.45.69-.52-1-1.05.25-1Z" transform="translate(0.25 0.25)"/><path id="HN" class="cls-1" d="M230.43,426.9,230,426l-.86-.25.2-1.15-.38-.31-.58-.2-1.23.34-.1-.39-.85-.46-.6-.57-.83-.24.58-.73-.22-.57.2-.56,1.32-.8,1.28-1.11.29.12.62-.51.8,0,.26.23.44-.14,1.3.26,1.29-.08.91-.32.33-.32.89.15.67.2.73-.07.56-.25,1.28.4.45.06.85.54.81.65,1,.44.74.8-1-.06-.39.39-1,.38h-.71l-.62.37-.56-.13-.48-.44-.29.08-.36.69-.27,0,0,.6-1,.79-.51.34-.29.35-.83-.57-.6.76-.59,0-.66.07.06,1.41-.41,0-.35.66Z" transform="translate(0.25 0.25)"/><path id="HT" class="cls-1" d="M270,406.75l1.71.13,2.43.47.25,1.61-.22,1.13-.68.5.72.88-.06.8-1.86-.5L271,412l-1.71-.21-1.32.55-1.5-.92.25-.94,2.58.4,2.12.24,1-.66-1.28-1.27,0-1.13-1.77-.46Z" transform="translate(0.25 0.25)"/><path id="IS" class="cls-1" d="M434.57,212.43l-.65,4.48,3.17,4.6-3.64,5-8.09,4.38L422.94,232l-3.69-.92-7.82-2,2.76-2.84-6.1-3.2,5-1.28-.12-2-5.88-1.57,1.89-4.47,4.25-1,4.37,4.68,4.26-3.75,3.53,2,4.57-3.71Z" transform="translate(0.25 0.25)"/><path id="JM" class="cls-1" d="M257.76,411l1.89.26,1.49.71.46.8-2,0-.85.49-1.57-.47-1.61-1.07.34-.67,1.18-.2Z" transform="translate(0.25 0.25)"/><path id="MX" class="cls-1" d="M202.89,388.72l-1.09,2.71-.49,2.21-.21,4.08-.27,1.47.49,1.64.87,1.47.56,2.31,1.86,2.22.65,1.68,1.1,1.45,3,.78L210.5,412l2.46-.82,2.13-.29,2.1-.53,1.77-.51,1.78-1.2.67-1.73.23-2.49.48-.87,1.9-.79,3-.69,2.48.1,1.7-.25.68.63-.1,1.44-1.51,1.77-.66,1.81.51.51-.42,1.28-.7,2.3-.71-.76-.59.05-.53,0-1,1.77-.5-.35-.34.14,0,.43-2.59,0H220.1v1.65h-1.27l1,1,1,.67.31.63.46.18-.08,1H218l-1.35,2.36.39.54-.32.68-.07.84-3.17-3.11L212,418.4l-2.29-.76-1.56.21-2.26,1.09-1.41.29-2-.76-2.1-.56-2.62-1.33-2.1-.41-3.18-1.35-2.34-1.4-.71-.78-1.57-.17-2.87-.93-1.17-1.34-3-1.68-1.4-1.86-.67-1.45.93-.29-.28-.85.64-.77v-1l-.94-1.34-.26-1.2L178,398.2l-2.47-3-2.82-2.39-1.36-1.91-2.41-1.26-.51-.76.43-1.92-1.43-.73-1.66-1.52-.7-2.19-1.51-.26-1.62-1.66L160.58,379l-.12-1L159,375.61l-1-2.48,0-1.25-2-1.29-.93.14-1.6-.9-.45,1.33.46,1.56.27,2.43,1,1.33,2.08,2.21.46.75.42.22.37,1.1.5-.05.57,2,.85.8.6,1.11,1.76,1.6.93,2.89.83,1.35.78,1.44.15,1.62,1.36.1,1.12,1.39,1,1.36-.07.54-1.18,1.11h-.5L166,396.2l-1.83-1.73-2-1.48-1.44-.78.09-2.25-.42-1.68-1.34-1-1.92-1.39-.38.4-.7-.82-1.73-.75-1.66-1.83.21-.24,1.15.18,1-1.18.11-1.43L153,378l-1.65-.89-1-2-1-2.13-1.3-2.61-1.14-3,3.19-.25,3.56-.36-.26.64,4.23,1.61,6.4,2.31,5.58,0h2.22V370h4.86l1,1.17,1.44,1,1.66,1.43.93,1.69.7,1.76,1.45,1,2.33,1,1.76-2.53,2.3-.06,2,1.28,1.41,2.18,1,1.86,1.65,1.8.62,2.19.79,1.47,2.18,1,2,.68Z" transform="translate(0.25 0.25)"/><path id="NI" class="cls-1" d="M234.93,432.31l-1-.9-1.31-1.15-.62-1-1.18-.89-1.41-1.29.32-.44.46.43.21-.21.87-.11.35-.66.41,0L232,424.7l.66-.07.59,0,.6-.76.83.57.29-.35.51-.34,1-.79,0-.6.27,0,.36-.69.29-.08.48.44.56.13.62-.37h.71l1-.38.39-.39,1,.06-.24.28-.14.64.28,1.05-.64,1-.3,1.15L241,426.5l.14.73.08,1.29-.43.28-.26,1.22.19.75-.58.73.13.76.44.47-.68.6-.82-.19-.47-.58-.89-.24-.64.37-1.85-.75Z" transform="translate(0.25 0.25)"/><path id="PA" class="cls-1" d="M256.89,443.21l-.94-.81-.6-1.52.69-.75-.71-.19-.52-.93-1.4-.78-1.23.17-.56,1-1.14.7-.61.1-.27.59,1.33,1.52-.76.36-.41.42-1.3.14-.49-1.68-.36.48-.93-.16-.56-1.14-1.15-.18-.73-.33H243l-.09.61-.32-.42.15-.56.23-.57-.11-.51.42-.34-.58-.41,0-1.14,1.09-.25,1,1-.05.6,1.11.12.27-.23.77.7,1.38-.21,1.19-.71,1.7-.57,1-.84,1.55.16-.1.28,1.56.1,1.25.49.91.84,1.06.78-.35.41.66,1.66-.53.84-.91-.2Z" transform="translate(0.25 0.25)"/><path id="PE" class="cls-1" d="M280.13,513.14l-.75,1.51-1.44.74-2.81-1.68-.25-1.2-5.55-2.92-5-3.17-2.17-1.78L261,502.27l.46-.83-2.37-3.75-2.77-5.24-2.64-5.62-1.15-1.28-.88-2.07-2.18-1.84-2-1.13.91-1.25L247,476.59l.87-1.95,2.24-1.77.33,1.17-.8.66.08,1,1.15-.22,1.14.3,1.17,1.41,1.59-1.15.53-1.88,1.72-2.43,3.37-1.1,3.06-2.92.87-1.81-.39-2.11.75-.27,1.86,1.32.89,1.32,1.3.72,1.66,2.92,2.08.35,1.55-.74,1,.48,1.68-.24,2.15,1.31L277,473.82l.84.06,1.4,1.49-2.52-.13-.38.42-2.3.53-3.2,1.91-.21,1.3-.71,1,.27,1.51-1.69.81v1.19l-.74.51,1.17,2.53,1.56,1.72-.59,1.21,1.86.16,1.06,1.51,2.47.08,2.3-1.67-.18,4.3,1.27.33,1.58-.49,2.43,4.58-.61,1-.14,2-.05,2.44-1.1,1.44.51,1.07-.65,1L281.9,510Z" transform="translate(0.25 0.25)"/><path id="PR" class="cls-1" d="M289.41,410.89l1.43.25.51.59-.72.74-2.11,0-1.64.1-.17-1.25.4-.43Z" transform="translate(0.25 0.25)"/><path id="PY" class="cls-1" d="M299.49,527l1.11-3.59.07-1.61,1.34-2.61,4.89-.86,2.6,0,2.61,1.52.05.91.83,1.66-.18,4.06,3,.58,1.14-.59,1.89.82.53.9.26,2.77.33,1.18,1,.13,1.06-.49,1,.55V534l-.38,1.82-.55,1.79-.46,2.74-2.54,2.39-2.22.51-3.15-.48L310.9,542l2.76-4.74-.41-1.36-2.88-1.2-3.43-2.26-2.29-.47Z" transform="translate(0.25 0.25)"/><path id="SR" class="cls-1" d="M315,446.72l3.36.56.3-.51,2.27-.2,3,.76-1.46,2.4.23,1.91,1.1,1.66-.5,1.2-.24,1.27-.72,1.18-1.6-.6-1.33.29-1.13-.25-.28.81.47.55-.25.57-1.52-.23L315,455.67l-.37-1.57h-.89l-1.25-2,.52-1.45-.15-.65,1.7-.73Z" transform="translate(0.25 0.25)"/><path id="SV" class="cls-1" d="M229.09,425.76l-.31.67-1.62,0-1-.27-1.16-.57-1.56-.18-.79-.62.09-.42,1-.72.52-.32-.15-.34.66-.17.83.24.6.57.85.46.1.39,1.23-.34.58.2.38.31Z" transform="translate(0.25 0.25)"/><path id="TT" class="cls-1" d="M302.31,433.24l1.61-.37.59.1-.11,2.11-2.34.31-.51-.25.82-.78Z" transform="translate(0.25 0.25)"/><path id="US" class="cls-1" d="M109.25,279.8h0L107.71,278l-2.47-1.57-.8-4.36-3.61-4.13L99.32,263l-2.7-.34-4.45-.13L88.88,261l-5.8-5.64-2.68-1-4.91-2-3.88.48-5.51-2.59-3.34-2.44-3.11,1.21.58,3.93-1.55.36-3.24,1.16L53,256.25l-3.11,1.17-.4-3.25,1.26-5.53,3-1.77-.77-1.46-3.57,3.22-1.92,3.77-4,4L45.46,259l-2.65,3.85-3,2.2L37,266.64l-.7,2.29-4.37,2.64L31,273.93l-3.28,2.13-1.93-.39-2.61,1.38-2.85,1.67L18,280.35l-4.81,1.37-.44-.8,3.07-2.27,2.74-1.52,3-2.71,3.48-.56,1.38-2.06,3.89-3.06.62-1L33,265.88l.49-4,1.42-3.18-3.23,1.64-.91-.93-1.51,2-1.83-2.73-.76,1.93-1.05-2.69L22.84,260H21.12l-.24-3.23.5-2-1.8-2-3.65,1.07-2.37-2.63-1.91-1.36,0-3.25-2.16-2.49,1.09-3.4,2.28-3.37,1-3.15,2.27-.46,1.93,1,2.26-3,2,.54,2.14-2L24,227.43l-1.57-1.17,2.08-2.51-1.72.07-3,1.43-.85,1.43-2.22-1.43-4,.73-4.11-1.57-1.17-2.65L3.9,217.85,7.84,215l6.25-3.41H16.4L16,215.06l5.91-.27-2.27-4.33-3.45-2.73-2-3.64-2.69-3.16-3.85-2.39,1.57-4,5-.26,3.54-3.58.67-3.92,2.86-3.91,2.74-1,5.31-3.75,2.58.57,4.31-4.61,4.25,1.83,2,3.87,1.25-1.65,4.74.51-.17,2L52.6,182l2.86-.83,5.91,2.63,5.39.78,2.16,1.06,3.73-1.33,4.25,2.46L80,188l0,27.64V251l2.76.17,2.73,1.56,2,2.43,2.49,3.6,2.72-3,2.82-1.8,1.49,2.86L98.78,259l2.56,2.42,1.76,3.79,2.86,5.89,4.77,3.2.08,3.12Zm175.93,34.43-1.25-1.18-1.88.7-.93-1.09-2.14,3.1-.85,3.15-1,1.82-1.19.62-.9.2-.28,1H269.6l-4.26,0-1.27.73L261.2,326l.29.54.16,1.51-2.1,1.27-2.3-.32-2.2-.14-1.33.44.25,1.15h0l.06.37-2.42,2.27-2.11,1.09-1.45.5-1.66,1-2,.49L243,336l-1.73-.77,1-1.45.61-1.32,1.32-2.09-.14-1.57-.5-2.24-1-.39-1.74,1.7-.56,0-.14-1,1.54-1.56.26-1.78-.23-1.8-2.08-1.55-2.38-.8-.39,1.52-.62.4-.49,2-.26-1.33-1.13,1-.7,1.32-.73,1.92-.14,1.64.93,2.38-.07,2.5-1.14,1.84-.57.52-.76.41-1,0-.26-.25-.75-2,0-1,.07-.94-.35-1.87.53-2.18.63-2.71,1.46-3H231l-2.06,2.54-.38-.46,1.1-1.42,1.67-2.58,1.91-.36,2.18-.8,2.21.42.09,0,2.47-.36-1.39-1.61-.76-.13-.85-.16-.59-1.14-2.75.36-2.49.9-2-1.55-1.59-.52.9-2.17-2.47,1.36L224,315.2l-2.17,1-1.71-1.4-2.81.85v-.6l1.9-1.73,2-1.65,2.86-1.38-3.45-1.09-2.27.55-2.72-1.31-2.86-.67-2-.26-.87-.72-.5-2.34-1,0v1.64H130.83l.95,3.47.45,3.41-.69,1.09-1.5-3.91-4-1.43-.34.82.82,1.94.88,3.52.51,5.42-.34,3.59-.34,3.54-1.1,3.61.9,2.9.09,3.2-.61,3.05,1.49,2,.39,2.94,2.17,3,1.24,1.17-.1.82,2.33,4.85,2.72,3.45.34,1.87.72.54,2.6.34,1,.91,1.57.17.31,1,1.3.41,1.82,1.92.47,1.69,3.19-.25,3.56-.36-.26.65,4.23,1.6,6.4,2.31,5.57,0h2.23V370h4.86l1,1.16,1.43,1,1.67,1.43.93,1.69.7,1.77,1.45,1,2.33,1,1.76-2.53,2.29-.06,2,1.28,1.41,2.18,1,1.86,1.65,1.8.62,2.19.78,1.47,2.19,1,2,.69,1.09-.1-.53-1.05-.14-1.5,0-2.16.64-1.41,1.53-1.51,2.79-1.37,2.55-2.37,2.36-.75,1.75-.22,2,.74,2.44-.4,2.09,1.69,2,.1,1.05-.6,1,.47.54-.42-.6-.63.05-1.31-.51-.85,1.16-.51,2.14-.22,2.49.36,3.16-.41,1.76.8,1.36,1.5.51.16,2.82-1.46,1.1.5,2.18,2.68.79,1.75-.58,2.1.42,1.23,1.31,2.4,1.48,2.67,1.07.72.44,1.35,1.38.37.84-.38.7-1.89.12-1.21.09-2.1-1.33-3.65,0-1.37-1.24-2.25-.94-2.74-.49-2.25.43-2.31,1.32-1.95,1.58-1.57,3.08-2.16.4-1.12L255,363l1.4-.21,1.84-2,2.9-1,1.79-2.53-.4-3.46-.29-1.2-.8-.25-.12-3.34-1.93-1.14,1.85.55-.6-2.26.54-1.55.33,3,1.43,1.36-.87,2.4.26.14,1.58-2.82.9-1.38-.05-1.35-.69-.64-.58-1.94.92.9.61.19.21.93,2-2.78.6-2.62-.82-.17.85-1-.08.45h1.79l3.92-1.1-.83-.71-4.12.7,2.34-1.07,1.63-.19,1.22-.18,2.07-.65,1.35.07,1.89-.6.23-1.07-.84-.84.29,1.37-1.16-.09-.93-2,0-2,.47-.86,1.49-2.28,3-1.15,2.88-1.34,3-1.9L287,322l-1.83-2.25ZM45.62,263.79l-1.5.8-2.54,1.86.43,2.42,1.44,1.32,2.8-2,2.42-2.46-1.19-1.63ZM0,235.23,2,234l.23-.68L0,232.61Zm8.5,15.36-2.77,1,1.7,1.53,1.84,1,1.72-.87-.26-2.15Zm97.35,32.5-2.7.38-1.31-.62-.17,1.52.52,2.07,1.41,1.46,1,2.13,1.69,2.1h1.12L105,288.43ZM37.13,403.77l-1-.28-.27.25,0,.19.32.24.48.63.94-.21.23-.36Zm-3-.54,1.5.09.09-.32-1.38-.13ZM40,406.52l-.5-.25-1.08-.51-.21-.05-.16.28.19.58-.49.48-.14.33.47,1.08-.08.82.69.43.41-.5.9-.46,1.1-.63.06-.16-.71-1Zm-7.86-5.14-.75.41.11.12.36.68,1,.11.2,0,.15-.18-.81-1Zm-4.4-1.56-.43.29-.14.22.94.55.33-.3-.06-.7Z" transform="translate(0.25 0.25)"/><path id="UY" class="cls-1" d="M313.68,551.79l1.82-.34,2.81,2.5,1-.1,2.89,2.09,2.2,1.82,1.62,2.25-1.23,1.58.77,1.89-1.21,2.12-3.17,1.88-2.07-.68-1.52.37L315,565.71l-1.9.11L311.43,564l.22-2.16.61-.74,0-3.3.75-3.37Z" transform="translate(0.25 0.25)"/><path id="VE" class="cls-1" d="M275.25,430.35l-.08.67-1.65.33.92,1.29,0,1.49-1.23,1.64,1.06,2.24,1.21-.18.63-2-.87-1-.14-2.15,3.49-1.15-.39-1.34,1-.9,1,2,2,.05,1.83,1.58.11.94,2.51,0,3-.3,1.61,1.27,2.14.35,1.57-.88,0-.72,3.47-.17,3.36,0-2.38.84,1,1.34,2.24.21,2.12,1.39.45,2.26,1.46-.07,1.1.67-2.22,1.65-.25,1,1,1.05-.69.52-1.73.45.06,1.3-.76.77,1.89,2.12.38.79-1,1.07-3.14,1-2,.44-.81.66-2.23-.7-2.08-.36-.52.26,1.25.72-.11,1.87.39,1.76,2.37.24.16.58-2,.8-.32,1.18-1.16.45-2.08.65-.55.86-2.17.18-1.55-1.48-.85-2.78-.75-1-1-.61,1.43-1.39-.1-.63-.8-.83-.56-1.85.22-2,.62-.94.51-1.5-1-.49-1.6.32-2-.15-1.13.3-2-2.41-1.63-.36-3.6.27-.67-1-.69-.24-.1-.59.33-1-.22-1.13-.62-.62-.36-1.29-1.44-.19.77-1.66.35-2,.81-1.05,1.09-.81.71-1.42Z" transform="translate(0.25 0.25)"/></svg>