<svg id="Calque_1" data-name="Calque 1" xmlns="http://www.w3.org/2000/svg" viewBox="0 0 478.54 573.06"><defs><style>.cls-1{fill:#ccc;stroke:#fff;stroke-width:0.5px;}</style></defs><path id="AF" class="cls-1" d="M116.88,305.9l2.86,1.3,2.11-.46.59-1.55,2.21-.52,1.58-1.05.56-2.79,2.36-.68.44-1.25,1.33.94.84.11,1.56,0,2.12.74.85.42,2-1.12,1,.67.9-1.61,1.68.08.43-.52.3-1.43,1.2-1.23,1.52.81-.3,1.08.85.17-.26,2.95,1.1,1.15,1-.74,1.25-.34,1.74-1.57,1.93.25h2.9l.49,1-1.63.39-1.42.65-3.22.4-3,.73-1.64,1.51.66,1.46.33,1.7-1.4,1.43.12,1.3-.78,1.22-2.66-.11,1.1,2.22-1.78.85-1.19,2,.15,2-1.1.93-1-.31-2.15.43-.3.91h-2.09l-1.56,1.84-.1,2.75-3.64,1.33-2-.28-.57.7-1.67-.4-2.81.47-4.69-1.63,2.54-2.93-.23-2.1-2.13-.55-.21-2.08-.92-2.65,1.2-1.83L115,312.6l.77-2.45Z" transform="translate(-0.06 -0.16)"/><path id="AM" class="cls-1" d="M67.45,286.5l3.9-.58.58,1,1.07.64-.57.92,1.5,1.26-.79,1.16,1.19,1,1.26.59.06,2.5-1,.1L73.49,293v-.55H72.26l-.83-1-.58.1-1.11-1.06-2.08-.91.27-1.79Z" transform="translate(-0.06 -0.16)"/><path id="AU" class="cls-1" d="M352.93,537.16l2.71,1.28,1.52-.51,2.19-.71,1.68.25.2,4.42-1,1.3-.29,3.07-1-1-1.94,2.67-.58-.2-1.73-.12L353,544.28l-.38-2.5L351,538.53l.07-1.7Zm-5.15-86.06,1,2.25,1.8-1.08.93,1.21,1.34,1.13-.28,1.28.59,2.48.43,1.46.71.35.76,2.5-.27,1.52.9,2,3,1.54,2,1.41,1.88,1.29-.36.72,1.6,1.87,1.09,3.25,1.12-.66,1.14,1.31.68-.47.48,3.21,2,1.87,1.31,1.17,2.19,2.49.78,2.48.08,1.78-.2,1.94,1.34,2.67-.16,2.81-.49,1.48-.75,2.87.05,1.86-.55,2.34-1.24,3-2.08,1.63-1,2.59-.93,1.67-.84,2.93-1.08,1.7-.71,2.59-.36,2.4.15,1.11-1.61,1.22-3.14.13-2.59,1.45-1.29,1.38-1.69,1.54-2.32-1.58-1.72-.63.44-1.85-1.54.67L347.92,530l-2.43-1-1.59-.56-1.6-.26-2.71-1L337.77,525l-.52-2.65-.65-1.76-1.38-1.39-2.69-.42.92-1.66-.68-2.52-1.37,2.35-2.5.63,1.47-1.89.43-1.95,1.08-1.65-.23-2.47-2.28,2.85-1.75,1.15-1.07,2.69-2.19-1.39.09-1.79-1.76-2.43-1.48-1.25.53-.77-3.6-2-2-.09-2.7-1.6-5,.31-3.63,1.18-3.19,1.1-2.67-.22L296,509l-2.43.77-.54,1.75-1,1.36-2.38.08-1.76.3-2.48-.61-2,.37-1.92.15-1.67,1.8-.82-.15-1.4,1-1.35,1.08-2.05-.13h-1.88l-3-2.16-1.51-.65.06-1.92,1.39-.46.48-.76-.1-1.2.34-2.3-.31-1.95L268.15,502l-.46-1.84.12-1.83-1.12-2.08-.07-.94-1.24-1.26-.35-2.47-1.6-2.47-.39-1.33,1.23,1.34-.95-2.88,1.4.9.83,1.2-.05-1.59-1.39-2.43-.27-1-.65-.92.31-1.77.57-.75.38-1.52-.3-1.76,1.16-2.17.21,2.29,1.19-2.07,2.28-1,1.36-1.28,2.15-1.09,1.27-.23.77.36,2.21-1.11,1.7-.33.43-.65.74-.27,1.55.07,2.95-.86,1.52-1.32.72-1.57L288,464l.13-1.17.07-1.59,2-2.47,1.18,2.51,1.2-.58-1-1.38.88-1.41,1.23.63.34-2.2,1.54-1.42.67-1.14,1.41-.49.05-.81,1.23.34.05-.72,1.23-.42,1.36-.38,2.07,1.32,1.55,1.7,1.76,0,1.78.27L308.1,453l1.34-2.3,1.26-.75-.43-.72,1.21-1.63,1.7-1,1.44.34,2.35-.53-.05-1.46-2.05-.93,1.49-.42,1.86.71,1.49,1.16,2.36.73.8-.29,1.74.88,1.63-.82,1.06.25.65-.54,1.29,1.41-.75,1.52-1.06,1.16-1,.09.32,1.15-.82,1.44-1,1.41.2.81,2.23,1.6,2.16.93,1.44,1,2,1.72h.79l1.47.74.43.9,2.67,1,1.85-1,.55-1.57.57-1.29.35-1.59.85-2.3-.39-1.39.21-.84-.33-1.64.37-2.16.54-.58-.44-.95.68-1.52.53-1.56.07-.81,1-1.06.79,1.39.2,1.78.7.34.11,1.2,1,1.45.21,1.62Z" transform="translate(-0.06 -0.16)"/><path id="AZ" class="cls-1" d="M71.43,291.46l.83,1H73.5V293l1.14,2.08-1.92-.48-1.42-1.66-.44-1.37ZM78.08,286l1.24.25.48-.94,1.68-1.51,1.47,2,1.43,2.62,1.3.17.87,1-2.31.29-.49,2.83L83.27,294l-1,.84.08,1.77-.7.17-1.75-1.86,1-1.78L80,292,79,292.3,75.65,295l-.06-2.5-1.26-.59-1.19-1,.79-1.16-1.5-1.26.57-.92-1.07-.64-.58-1,.69-.6,2.09,1.06,1.51.22.38-.43-1.38-2,.73-.51.78.12Z" transform="translate(-0.06 -0.16)"/><path id="BD" class="cls-1" d="M205.09,349.4l-.05,2.16-1-.46.18,2.41-.8-1.56-.16-1.52-.54-1.45-1.17-1.76L199,347.1l.25,1.25-.88,1.67-1.19-.61-.4.55-.8-.33-1.08-.27-.44-2.48-1-2.28.47-1.84-1.72-.82.62-1.12,1.75-1.15-2-1.63,1-2.11,2.22,1.34,1.34.16.25,2.15L200,340l2.61-.05,1.61.53L203,343.07l-1.25.18-.87,1.73,1.54,1.58.45-1.94h.78Z" transform="translate(-0.06 -0.16)"/><path id="BN" class="cls-1" d="M265.46,399.77l1.11-1,2.39-1.53-.13,1.38-.16,1.78-1.34-.09-.59.95Z" transform="translate(-0.06 -0.16)"/><path id="BT" class="cls-1" d="M202.36,331.78l1.14,1-.2,1.93-2.29.09-2.36-.21-1.77.49-2.54-1.19-.06-.63,1.85-2.34,1.52-.8,2,.73,1.48.08Z" transform="translate(-0.06 -0.16)"/><path id="CN" class="cls-1" d="M255.88,355.27l.63,1.13-1.23,1.3-.65,1.7-2.42,1.42-2.3-.91-.08-2.54,1.38-1.34,3.06-.83Zm63.33-96.67-2.43,1.65h-4.26l-1.13-3.94-3.32-3-4.89-1.38-1-4.28-1-2.73-1.05-1.94-1.73-4.61-2.46-1.71-4.2-1.39-3.72.12-3.48.85-2.32,2.31,1.54,1.1,0,2.52-1.56,1.45-2.54,4.72,0,1.93-4,2.74-3.37-1.63L271,254.58l-2,4.23.72,1.7,1.59-.53,2.76.65,2.16-1.54,2.25,1.34,2.54,2.88-.31,1.46-2.21-.46-4.07.54-2,1.15-2.05,2.66-4.28,1.55-2.79,2.1-2.88-.8-1.58-.36-1.47,2.54.89,1.5.46,1.28-2,1.29-2,2.06-3.27,1.33-4.21.15-4.53,1.31-3.26,2-1.24-1.16h-3.39l-4.15-2.29-2.77-.56-3.73.52-5.79-.85-3.09.09-1.64-2.27-1.28-3.57-1.73-.43-3.39-2.45-3.78-.55-3.33-.68-1-1.73,1.08-4.72-1.93-3.32-4-1.57L192,256.85l-.73-3-1.1.35-2.14,2.83-2.33.4-.13,4.18L184,263.5l-5.56-1.35-2,7.26-1.44.89-5.56,1.58,2.53,6.76-1.93,1,.23,2.17-.4.85-4.41,2-1,1.48-3.6.44L159.82,289l-3-.49-1.94.72-2.67,1.72.38.85-.8.83.72,3.33.92-.36,1.7.81-.1,1.38.42,2,.5,1,2.07,1.63.83,2.66,4.61,1.39,2.32-1.16,1.62-.37,1.66.53,1.16.84-.72,2.82-1.38.81,0,.81-.34.56-1.1-.06-.19.22.32.94-.32.94.54.47.68.09,0,.47.6,1.4-.69.75-.59.34-.44.16-.48-.69-.84-.18.78,3.62,2.76,2.07,3.9,2.26,1.16-.77,2.25,1,2.83,2.1,1.57.46.94,1.53,2.18.63,2.28,1.39,3.17.73,3.27.31,1.71-.67.23,2.48,1.86-2.34,1.51-.8,2,.73,1.48.08,1.23.84,2.26-.39,2.55-2.36,3.23-2,2.35.79,2-1.35,1.32,2-.95,1.33,3,.48,1.64-.24.94,1.86,1.22.75L222,335l-.12,2.57-2.65,2.58-.34,3.63,3-.5.67,2.8,1.78.58-.82,2.51,2.08,1.13,1.22.55,2.05-.87.09,1.24.25.7,1.5.08-.43-3.43,1.45-.44,1.51-.74,2.24,0,2.72-.35,2.39-1.62,1.35,1.14,2.57.55-.45,1.74,1.34,1.22,2.82.78,1.33-.49,3.76,1-.67,1.16.74,2.16,1.55-.17,1-3.15,3-.46,3.92-1.51,1.58-1.5,1,1,1.72-1.34,3.16-.34,3.9-2.56L278,341.8l2.6-3.68,2.28-4.09,2-3.4,1.57-.29.71-2.52.43-2.6-1.65-1-.67-1.73,1.76-.89.05-2.42-1.91-2.53-1.7-3-1.1-3.3-3-1.87,1.44-2.39,2.72-1.73,1.31-1.87,4-1-.45-1.83-1.81-.09L284,298.16l-3.15,2.51-2.21-1-.1-1.58-2.29-.59-1.48-2.4,1.43-1.68,2.75-.17,1.73-2.34,3.16-2.55,2.45-1.3L287.8,289l-2.22,2.45.58,1.42-1.49,1.66,3-1,2.07-1.69,3.92-1.05,2.28-2.35,3.09-2L301,283.8l1.33,1.17,2.42.14-.44-2,4.33-1.62,1.12-2.13,1.81,2.24,0-1.93,1.43-.1.41-4.55-.74-3.36,2.41-1.4,3.4.7,1.88-3.88,1-4.47,1.09-1.51,1.48-3.76Z" transform="translate(-0.06 -0.16)"/><path id="FJ" class="cls-1" d="M450.53,457.61l-.35,1.39-.23.16-1.79.71-1.79.62L446,459.4l1.4-.6.89-.16,1.65-.9Zm-5.84,4.31-1.27-.36-1.09,1,.28,1.29,1.54.36,1.74-.4.46-1.53-1-.85Z" transform="translate(-0.06 -0.16)"/><path id="GE" class="cls-1" d="M61.77,284.85l.41-1.6-.7-2.57-1.62-1.41-1.55-.44-1-1.17.34-.46,2.37.66,4.13.62,3.82,1.83.49.71,1.7-.6,2.61.8.86,1.55,1.77.87-.73.51,1.38,2-.38.43-1.52-.22L72,285.32l-.69.6-3.9.58-2.7-1.83Z" transform="translate(-0.06 -0.16)"/><path id="ID" class="cls-1" d="M283.72,441.06l-1.18.05-3.72-2,2.61-.55,1.48.86,1,.85Zm10.43-.28-2.4.62-.33-.34.25-1,1.21-1.73,2.77-1.12.28.56.05.85ZM275.83,435l1,.75,1.73-.23.7,1.2-3.25.56-1.94.38-1.51,0,1-1.63,1.54,0Zm14,0-.41,1.56-4.22.8L281.5,437v-1l2.23-.58,1.76.84,1.86-.21Zm-40-3.7,5.37.28.62-1.16,5.2,1.35,1,1.82,4.2.51,3.44,1.67-3.2,1.08-3.08-1.14-2.54.08-2.91-.21-2.62-.5L252.07,434l-2.06-.28-1.16.36-5.12-1.16-.48-1.21-2.57-.2,1.93-2.68,3.4.16,2.26,1.1,1.16.21ZM323,429.73l-1.44,1.91-.27-2.11.49-1,.59-.95.64.82ZM302,422,301,423l-1.94-.51-.54-1.2,2.83-.14Zm9-1,1,2.13L309.73,422l-2.34-.23-1.59.18-1.94-.1.67-1.53,3.46-.12Zm10.29-5.42.78,4.51,2.9,1.67,2.35-3,3.22-1.68h2.49l2.4,1,2.08,1,3,.53,0,9.1.05,9.16-2.5-2.31-2.84-.57-.69.8-3.56.09,1.19-2.29,1.77-.78-.73-3.05L332,427.43l-5.43-2.37-2.32-.23L320,422.25l-.83,1.35-1.07.25-.64-1v-1.22l-2.14-1.37,3-1,2,.05-.23-.74H316l-1.11-1.66-2.5-.51L311.21,415l3.78-.68,1.44-.91,4.5,1.15Zm-25-7.16-2.25,2.76-2.11.54-2.7-.54-4.67.14-2.45.4-.4,2.1,2.51,2.48,1.52-1.26,5.22-.95-.23,1.28-1.22-.4-1.22,1.63L286,417.69l2.65,3.57-.51,1,2.52,3.22,0,1.84-1.49.82-1.1-1,1.35-2.29-2.75,1.08-.7-.77.37-1.08-2-1.64.21-2.71-1.87.84.24,3.26.11,4-1.77.4-1.21-.82.81-2.57-.44-2.7-1.18,0-.87-1.91,1.16-1.82.4-2.22,1.41-4.2.59-1.14,2.38-2.07,2.19.82,3.53.39,3.23-.12,2.77-2Zm9.67.8-.15,2.43-1.45-.27-.42,1.7,1.15,1.47-.78.33-1.13-1.76-.84-3.56.57-2.23.93-1,.2,1.52,1.65.24Zm-30.32-1.94,3.14,2.58-3.32.33-.94,1.9.13,2.52-2.7,1.91L272,419.3l-1.08,4.27-.42-1-3.18,1.25-1.11-1.71-2-.15-1.4-.9-3.33,1-1-1.35-1.83.15-2.31-.32-.43-3.74-1.4-.77-1.35-2.39-.39-2.43.33-2.59,1.66-1.85.47,1.86,1.92,1.58,1.81-.57,1.79.2,1.63-1.41,1.35-.24,2.65.78,2.29-.59,1.43-3.88,1.08-1,1-3.17h3.23l2.43.47-1.6,2.52,2.07,2.64ZM242,428.71l-3.1.06-2.37-2.34-3.6-2.28-1.2-1.69-2.12-2.27-1.39-2.09L226,414.2l-2.47-2.32-.82-2.4-1-2.17-2.53-1.76-1.47-2.38-2.11-1.57-2.92-3.07-.25-1.43,1.81.11,4.34.55,2.48,2.73,2.17,1.89,1.54,1.16,2.66,3,2.85,0,2.35,1.91,1.63,2.33,2.13,1.28-1.12,2.27,1.6,1,1,.07.48,1.94,1,1.56,2.06.24,1.37,1.77-.71,3.47Z" transform="translate(-0.06 -0.16)"/><path id="IN" class="cls-1" d="M218.35,331.43l-.21-1.2-3-.47.95-1.34-1.32-2-2,1.34L210.4,327l-3.23,2-2.55,2.35-2.26.4,1.14,1-.2,1.93-2.29.09-2.36-.21-1.77.49-2.54-1.19-.06-.63-.24-2.48-1.71.67-.22,1.35.37,2-.32,1.24-2.33.05-3.38-.73-2.16-.29-1.62-1.6-3.84-.4-3.66-1.77-2.64-1.55-2.72-1.2,1.09-3,1.78-1.46-3.9-2.27L166,319.76l0-.12-.12.11.87,1.37-1.94-.62-1.5,1.12.13,1.38-.69.44L161.5,323l-3.19,2.56-5.75-.87-.25-1.25h0l-1.11,1.32L149.44,328l-2.93,3.32-3.26-.24-3.09,3.3,1.84,1.4.32,2.39,1.57,1.56.56,2.64h-6.17l-1.87,2L139.7,347l.83,1.18-1.35,1.09,3.66,3.63,2,.36,4.08-1.79.54,2.8v3.58l.84,3.77,1.16,5.64,2.55,4,.49,1.8.69,3.58,1.49,2.74,1,1.34,1.07,2.86,1.3,4,2.65,2.63,1.13-.81.94-1.92,2.56-.8-.85-.93,1.27-2.15,1.45-.14,0-4.83,1.18-2.71-.14-2.37-.59-3.75.84-2.2,1.31-.16,2.53-1,1.4-.72v-1.34l2.79-1.91,2.11-1.85,3.14-3.46,4-2,1.5-1.76-.16-2.25,3.46-.62,1.9,0,.41-1.1-.44-2.48-1-2.28.47-1.84-1.72-.82.62-1.12,1.75-1.15-2-1.63,1-2.11,2.22,1.34,1.34.16.25,2.15L200,340l2.61-.05,1.61.53L203,343.07l-1.25.18-.87,1.73,1.54,1.58.45-1.94h.78l1.47,4.79,1.39-.71-.3-1.28.63-1,.11-3.15,2.19.7,1.25-2.53.15-1.49,1.54-2.6-.08-1.78,3.63-2.16,2,.57-.23-1.93Z" transform="translate(-0.06 -0.16)"/><path id="IR" class="cls-1" d="M96.44,300.53l2.47-.68,2-2,1.87.1,1.24-.66,2,.33,3.1,1.79,2.24.38,3.2,3.1,2.09.12.25,2.91-1.14,4.25L115,312.6l1.22.49-1.2,1.83.92,2.65.21,2.08,2.13.55.23,2.1-2.54,2.93,1.38,1.68,1.13,1.93,2.68,1.4.08,2.77,1.34.51.23,1.44-4,1.61-1.06,3.6-5.27-.93-3.06-.71-3.16-.41-1.2-3.81-1.34-.56-2.16.56-2.82,1.51-3.43-1-2.83-2.41-2.7-.9-1.87-3-2.07-4.27-1.51.52-1.78-1.07-1,1.26-1.55-1.69,0-1.73H79l.45-2.37L78,316.62l-3.43-1.82-2-3.18.65-2.64,1.42-1.17-.22-2-1.84-1-1.81-4.14-1.53-2.83.54-1.1-.87-4.11,1.92-1,.44,1.37,1.42,1.66,1.92.47,1-.1L79,292.3,80,292l.83,1.06-1,1.78,1.75,1.86.69-.17.89,2.61,2.66.73,2,1.76,4,.6,4.38-.92Z" transform="translate(-0.06 -0.16)"/><path id="JP" class="cls-1" d="M322.76,311l.36,1.15-1.58,2-1.15-1.07-1.44.77-.74,1.95-1.83-.95,0-1.58,1.55-2,1.6.39,1.15-1.42Zm17.77-10.28-1.06,2.78.49,1.73-1.46,2.41-3.58,1.61-4.93.2-4,3.85L324.11,312,324,309.5l-4.88.74-3.32,1.59-3.28.07,2.84,2.46L313.49,320l-1.81,1.37-1.36-1.27.69-3-1.77-1-1.14-2.28,2.65-1,1.47-2.11L315,309l2-2.34,5.59-1,3,.7,2.94-6.17,1.87,1.68,4.11-3.52,1.59-1.37,1.77-4.39-.48-4.1,1.18-2.33,3-.68,1.53,5.11-.08,2.93-2.6,3.61Zm8.23-25.93,2,.82,2-1.65.62,4.35-4.16,1.05-2.45,3.76-4.41-2.58-1.52,4.12-3.12.06-.39-3.74,1.39-2.94,3-.21.82-5.39.83-3.08,3.29,4.11Z" transform="translate(-0.06 -0.16)"/><path id="KA" class="cls-1" d="M167.78,311.28l.34-.56,0-.81,1.37-.82.72-2.81-1.16-.84-1.65-.53-1.63.37-2.31,1.16-4.61-1.39-.83-2.66L156,300.76l-1.63.39-1.42.65-.41.05-2.52.84-1.69,2.43,4.5,2.69-2,2.31.57,4.44,2.56,1.06H154v0l2.27,1.63-2.39,1.91,0,2.33-1.61,1.92h0l.25,1.25,5.75.87L161.5,323l1.25.44.69-.44-.13-1.38,1.5-1.12,1.94.62-.87-1.37.12-.11-.76-3.51.85.18.47.69.44-.16.59-.34.69-.75-.59-1.41,0-.46-.69-.1-.53-.47.31-.93-.31-.94.19-.22Z" transform="translate(-0.06 -0.16)"/><path id="KG" class="cls-1" d="M144.22,282.11l.63-1.66,1.84-.54,4.62,1.31.43-2.24,1.6-.8,4,1.61,1-.42,4.65.11,4.16.39,1.4,1.37,1.73.55-.39.86-4.42,2-1,1.48-3.6.44L159.82,289l-3-.49-1.93.72-2.68,1.72.39.85-.8.83-5.3.55L143.06,292l-3,.29.27-2.1,3.05.61,1-1.13,2.13.36,3.59-2.64-3.32-1.95-2,.92-2.07-1.4,2.35-2.43Z" transform="translate(-0.06 -0.16)"/><path id="KH" class="cls-1" d="M235.44,382.6l-1.14-1.48-1.41-2.94-.67-3.45,1.8-2.38,3.62-.55,2.63.41,2.32,1.13,1.26-2,2.49,1.06.65,1.92-.35,3.42-4.71,2.19,1.23,1.73-2.94.2L237.79,383Z" transform="translate(-0.06 -0.16)"/><path id="KP" class="cls-1" d="M311.55,281.62l.39.67-1.06-.23-1.22,1.27-.84,1.28.11,2.67-1.45.81-.5.65-1.06,1.08-1.87.6-1.21,1-.09,1.57-.33.4,1.12.58,1.59,1.57-.41.87-1.19.23-2,.18-1.09,1.59-1.26-.12-.17.32-1.36-.67-.34.66-.82.29-.1-.66-.73-.32-.75-.57.77-1.57.66-.42-.25-.65.71-1.94-.18-.59-1.64-.4-1.32-1,2.28-2.35,3.09-2L301,283.8l1.33,1.17,2.42.14-.44-2,4.33-1.63,1.12-2.13Z" transform="translate(-0.06 -0.16)"/><path id="KR" class="cls-1" d="M305.13,295.52l2.42,4.19.69,2.27,0,4-1.05,1.88-2.54.66-2.24,1.41-2.53.29-.31-1.85.52-2.57-1.24-3.6,2.08-.59-1.92-3,.17-.32,1.26.12,1.09-1.59,2-.18,1.19-.23Z" transform="translate(-0.06 -0.16)"/><path id="KZ" class="cls-1" d="M144.22,282.11l-1.61.7-3.7,2.61-1.22,2.65-1.05,0-.76-1.75-3.57-.12-.57-3.06-1.37,0,.21-3.8-3.35-2.8-4.81.3-3.29.56-2.68-3.5-2.29-1.48-4.35-2.84-.52-.35-7.22,2.35.11,14.13-1.44.18-2-2.93-1.9-1.06-3.18.79-1.24,1.25L92.3,283l.69-1.57-.53-1.32-3.25-1.3-1.27-3.47-1.54-1-.1-1.28,2.73.37.11-2.88,2.38-.65,2.45.6.51-3.91-.5-2.51-2.81.2-2.38-1-3.25,1.79-2.62.85-1.42-.65.29-2.1L80,260.44l-2.08.11-2.38-2.83,1.62-3.22-.82-.87,2.24-4.77,2.88,2.53.35-3.19,5.78-4.85,4.38-.12,6.19,3.1,3.31,1.79,3-1.86,4.45-.09,3.58,2.29.82-1.31,3.93.19.71-2.11-4.55-3.09,2.69-2.23-.52-1.25,2.69-1.21-2-3.2,1.28-1.62L128,231l1.37-1.19,7-1.8,2.52-2,5,1.06.88,5,2.93-1.16,3.6,1.63-.23,2.58,2.69-.27,7-4.49-1,1.5,3.58,3.66,6.26,11.58,1.5-2.33,3.86,2.56,4-1.14,1.54.8,1.35,2.55,2,.84,1.2,1.85,3.61-.58,1.49,2.63-2.14,2.83-2.33.4-.13,4.18L184,263.5l-5.56-1.35-2,7.26-1.44.89-5.55,1.58,2.52,6.75-1.92,1,.22,2.16-1.73-.55-1.4-1.37-4.16-.39-4.65-.11-1,.42-4-1.61-1.6.8-.43,2.24-4.62-1.31-1.84.54Z" transform="translate(-0.06 -0.16)"/><path id="LA" class="cls-1" d="M240.27,372.21l.91-1.3.13-2.44L239,365.94l-.18-2.87-2.13-2.38-2.12-.2-.56,1-1.65.08-.84-.51-2.95,1.74-.07-2.62.69-3.11-1.89-.13-.16-1.78-1.22-.92.6-1.1,2.39-1.94.25.7,1.49.08-.42-3.43,1.45-.44,1.64,2.38,1.26,2.71,3.45,0,1.09,2.6-1.79.77-.81,1.07,3.36,1.76,2.33,3.46,1.77,2.57,2.12,2,.71,2-.51,2.88-2.49-1.06-1.26,2Z" transform="translate(-0.06 -0.16)"/><path id="LK" class="cls-1" d="M174.57,391.37l-.42,2.92-1.17.8-2.44.64-1.34-2.23-.49-4,1.27-4.58,1.93,1.57,1.31,2Z" transform="translate(-0.06 -0.16)"/><path id="MM" class="cls-1" d="M224.36,355l-1.64,1.28-2,.14-1.28,3.19-1.18.53,1.36,2.57,1.77,2.13,1.15,1.92-1,2.52-1,.53.67,1.45,1.87,2.28.32,1.6,0,1.33,1.09,2.6-1.54,2.65-1.36,2.91-.27-2.1.86-2.18-.94-1.68.23-3.11L220.32,374l-.91-3.44-.51-3.66-1.21-2.4L215.84,366l-3.19,2.07-1.57-.25-1.74-.69,1-3.6-.58-2.74-2.2-3.39.34-1.07-1.64-.38-2-2.42-.18-2.41,1,.46.05-2.16,1.39-.71-.3-1.28.63-1,.11-3.15,2.19.7,1.25-2.53.15-1.49,1.54-2.6-.08-1.78,3.63-2.16,2,.57-.23-1.93,1-.58-.21-1.2,1.64-.24.94,1.86,1.22.76L222,335l-.12,2.57-2.65,2.58-.34,3.64,3-.51.67,2.8,1.78.59-.82,2.5,2.08,1.13,1.22.55,2.05-.87.09,1.24-2.39,1.94-.6,1.1Z" transform="translate(-0.06 -0.16)"/><path id="MN" class="cls-1" d="M191.29,253.88l3-.74,5.35-3.74,4.26-2.07,2.44,1.35,2.93.06,1.87,2,2.8.15L218,252l2.72-3-1.14-2.6,2.91-4.66,3.14,1.87,2.54.53,3.3,1.15.53,3.32,4,1.84,2.65-.81,3.54-.57,2.81.58,2.75,2.09,1.7,2.2,2.6,0,3.53.7,2.58-1.07,3.69-.71,4.11-3.06,1.68.47,1.47,1.46,3.34-.36L271,254.58l-2,4.22.72,1.71,1.59-.53,2.76.65,2.16-1.54,2.25,1.33,2.54,2.89-.31,1.45-2.21-.46-4.07.54-2,1.16-2.05,2.66-4.28,1.55-2.79,2.1-2.88-.8-1.58-.36-1.47,2.54.89,1.5.46,1.28-2,1.3-2,2.05-3.27,1.33-4.21.15-4.53,1.31-3.26,2-1.24-1.16h-3.39l-4.15-2.29-2.77-.56-3.73.52-5.79-.85-3.09.09-1.64-2.27-1.28-3.57-1.73-.43-3.39-2.45-3.78-.55-3.33-.68-1-1.73,1.08-4.73-1.93-3.31-4-1.57L192,256.85Z" transform="translate(-0.06 -0.16)"/><path id="MY" class="cls-1" d="M228.65,395.07l.22,1.44,1.86-.34.91-1.15.65.27,1.65,1.69,1.18,1.87.16,1.88L235,402l.27,1,.21,1.65,1,.77,1.1,2.46-.06.94-2,.19-2.65-2.06-3.32-2.22-.33-1.42-1.62-1.86-.39-2.31-1-1.53.31-2-.62-1.18.49-.5Zm49.19,4.83-2.06,1-2.43-.47h-3.23l-1,3.17-1.08,1-1.44,3.88-2.28.59-2.65-.78-1.35.25-1.63,1.41-1.79-.2-1.81.56-1.92-1.57-.47-1.86,2.06.95,2.16-.52.57-2.36,1.19-.53,3.36-.6,2-2.21,1.37-1.76,1.28,1.44.59-.95,1.34.09.16-1.78.13-1.38,2.16-1.95,1.41-2.19h1.14l1.44,1.42.12,1.22,1.85.78,2.34.84-.2,1.1-1.88.13Z" transform="translate(-0.06 -0.16)"/><path id="NC" class="cls-1" d="M410.08,472.48l2.3,1.86,1.45,1.38-1.06.73-1.55-.82-2-1.35-1.81-1.59-1.85-2.1-.39-1,1.2,0,1.58,1,1.23,1Z" transform="translate(-0.06 -0.16)"/><path id="NP" class="cls-1" d="M192.33,331.45l-.22,1.35.37,2-.32,1.24-2.33.05-3.38-.73-2.16-.29-1.62-1.6-3.84-.4-3.66-1.77-2.64-1.55-2.72-1.2,1.09-3,1.78-1.46,1.16-.78,2.25,1,2.83,2.09,1.57.46.94,1.53,2.18.63,2.28,1.39,3.17.73Z" transform="translate(-0.06 -0.16)"/><path id="NZ" class="cls-1" d="M430.38,537.63l.63,1.53,2-1.5.81,1.56v1.57l-1,1.74-1.84,2.8-1.43,1.54,1,1.86-2.16,0-2.4,1.46-.75,2.57-1.59,4-2.2,1.8L420,559.8l-2.59-.09-1.81-1.34-3.05-.28-.47-1.48,1.51-3,3.52-3.87,1.81-.73,2-1.47,2.4-2,1.68-2,1.25-2.81,1.06-.94.42-2.08,2-1.7Zm4.46-17,2,3.67.06-2.38,1.27.94.41,2.66,2.26,1.15,1.9.28,1.6-1.35,1.42.41-.68,3.15-.85,2.09-2.14-.07-.75,1.1.26,1.56-.41.67-1.06,2L438.77,539l-2.17,1.49-.48-1L435,539l1.62-3-.92-2-3-1.45.08-1.31,2-1.25.48-2.75-.13-2.28-1.14-2.34.08-.61-1.34-1.43-2.21-3-1.17-2.4,1-.27,1.52,1.89,2.19.88Z" transform="translate(-0.06 -0.16)"/><path id="PG" class="cls-1" d="M382.32,431.42l-.79.29-1.21-1.08-1.23-1.78-.6-2.13.39-.27.3.83.85.64,1.36,1.77,1.32.95Zm-10.93-3.75-1.47.23-.44.78-1.53.68-1.44.66H365l-2.3-.81-1.6-.78.23-.87,2.51.41,1.54-.22.42-1.34.4-.07.27,1.49,1.6-.21.8-1,1.56-1-.31-1.64,1.68-.06.57.46-.06,1.55ZM358,433l2.5,1.84,1.82,3,1.61-.09-.12,1.25,2.17.48-.84.53,3,1.19-.31.82-1.86.2-.69-.74-2.41-.32-2.83-.42L357.8,439l-1.59-1.56-1.46-2.46-3.66-1.23-2.37.8-1.71.93.35,2.08-2.2,1-1.57-.47-2.9-.12-.05-9.16,0-9.1,4.86,1.92,5.19,1.6,1.93,1.43,1.56,1.4.43,1.65,4.67,1.73.68,1.48-2.58.31Zm16.68-8.09-.88.75-.53-1.65-.65-1.08-1.27-.92-1.6-1.19-2-.82.78-.67,1.51.78.95.61,1.18.67,1.12,1.17,1.07.9Z" transform="translate(-0.06 -0.16)"/><path id="PH" class="cls-1" d="M299.59,388.86l.29,1.87.16,1.58-1,2.57-1-2.86-1.32,1.42.9,2.07-.8,1.31-3.3-1.63-.79-2,.85-1.33-1.77-1.33-.88,1.17-1.32-.11-2.08,1.56-.46-.82,1.1-2.37,1.77-.79,1.52-1.06,1,1.27,2.13-.77.45-1.25,2-.08-.17-2.18,2.27,1.34.24,1.42Zm-6.71-5.26-1,.93-.87,1.79-.88.83-1.73-1.95.58-.76.7-.79.31-1.76,1.55-.17-.46,1.91,2.08-2.73Zm-15.36,2.72L273.79,389l1.38-2,2-1.75,1.69-1.95,1.47-2.82.5,2.31L279,384.38ZM287,379l1.68.88h1.78l0,1.19-1.3,1.2-1.78.85-.1-1.31.2-1.45Zm10.14-.77.79,3.17-2.16-.75.06.95.68,1.75-1.33.64-.12-2-.84-.15-.44-1.72,1.65.23,0-1.08-1.71-2.18,2.69.07ZM286,375.66l-.75,2.47-1.2-1.42-1.43-2.18,2.4.1Zm-.58-15.74,1.73.84L288,360l.26.75-.46,1.21,1,2.1-.74,2.41-1.65,1-.44,2.34.62,2.29,1.49.32,1.24-.34,3.5,1.59-.26,1.56.91.69-.29,1.31-2.19-1.4-1-1.5-.72,1.05-1.79-1.72-2.55.43-1.39-.64.14-1.18.88-.74-.84-.66-.36,1-1.39-1.66-.42-1.26-.1-2.77,1.13,1,.29-4.56.91-2.66Z" transform="translate(-0.06 -0.16)"/><path id="PK" class="cls-1" d="M151.38,314.56l-.57-4.44,2-2.31-4.5-2.69,1.69-2.43,2.52-.84-2.81.35-3,.73-1.64,1.51.66,1.46.33,1.7-1.4,1.43.12,1.3-.78,1.22-2.66-.11,1.1,2.22-1.78.85-1.19,2,.15,2-1.1.93-1-.31-2.15.43-.3.91h-2.09l-1.56,1.84-.1,2.75-3.64,1.33-2-.28-.57.7-1.67-.4-2.81.47-4.69-1.63,1.38,1.68,1.13,1.93,2.68,1.4.08,2.77,1.34.51.23,1.44-4,1.61-1.06,3.6,3.95-.44,4.56-.05,5.16-.58,2.17,2.34.83,2.2,2.06.77,1.87-2h6.17l-.56-2.64-1.57-1.56-.32-2.39-1.84-1.4,3.09-3.3,3.26.24,2.93-3.32,1.76-3.26,2.72-3.24,0-2.33,2.39-1.91L154,315.64v0h-.05Z" transform="translate(-0.06 -0.16)"/><path id="RU" class="cls-1" d="M478.27,164.75l-2.78,3-4.6.7-.07,6.46-1.12,1.35-2.63-.2-2.13-2.26-3.73-1.92-.63-2.89-2.85-1.1-3.19.87L453,166.38l.61-2.56-3.36,1.64,1.27,3.19L450,171.48l0,0-3.61,2.89-3.63-.48,2.53,3.44,1.67,5.2,1.29,1.67.33,2.53-.73,1.6-5.22-1.31-7.84,4.51-2.49.68-4.29,4.1-4.07,3.51-1,2.55-4-3.9-7.31,4.42-1.28-2.08-2.7,2.39-3.75-.76-.9,3.63-3.36,5.22.1,2.14,3.19,1.17-.38,7.46-2.6.19-1.2,4.15,1.17,2.1L394.9,231l-1,5.41-4.18,1.13-.84,4.66-4,4.19-1-3.09-1.2-6.69L381.07,226l1.34-6.95,2.37-3.07.15-2.44,4.35-1.18,5-6.79,4.83-5.72,5-4.57,2.25-8.37-3.4.51-1.69,4.92-7.11,6.36-2.3-7.13-7.24,2-7,9.56,2.31,3.37-6.26,1.42-4.33.56.2-3.95-4.36-.84-3.47,2.71-8.57-1L344,207l-9.08,10.33-10.74,11.78,4.41.61,1.38,3,2.73,1.06,1.79-2.38,3.08.31,4,5.19.1,3.93-2.19,4.51-.24,5.26L338,257.49l-4.23,6-.94,2.82L329,271l-3.77,4.53-1.81,2.28L319.67,280l-1.77,0-1.76-1.86L312.38,281l-.44,1.26-.39-.66,0-1.93,1.43-.1.4-4.56-.73-3.35,2.4-1.4,3.4.7,1.89-3.89,1-4.46,1.09-1.51,1.47-3.76-4.63,1.24-2.43,1.64h-4.26l-1.14-3.95-3.32-3-4.88-1.38-1-4.28-1-2.73-1.05-1.94-1.74-4.61-2.46-1.71-4.19-1.4-3.72.13-3.49.84-2.31,2.32,1.54,1.09,0,2.52-1.56,1.46-2.53,4.72,0,1.93-4,2.74-3.37-1.63-3.35.36-1.46-1.46-1.69-.47-4.1,3.06-3.69.71-2.58,1.06-3.53-.7-2.6.05-1.7-2.2-2.75-2.1-2.81-.57-3.55.57-2.65.81-4-1.84-.53-3.32-3.3-1.15-2.55-.53-3.14-1.87-2.9,4.66,1.14,2.6L218,252l-4-1.09-2.8-.16-1.87-2-2.93-.06-2.44-1.36-4.26,2.07-5.35,3.74-3,.75-1.1.35-1.48-2.63-3.62.57-1.19-1.84-2-.85-1.35-2.54-1.55-.8-4,1.14-3.86-2.57-1.49,2.34-6.27-11.58-3.57-3.66,1-1.5-7,4.49-2.68.27.23-2.58-3.6-1.63L144.83,232l-.88-5-5-1.06-2.52,2-7,1.8L128,231l-10.49,1.67-1.29,1.62,2,3.2-2.69,1.21.52,1.25-2.69,2.22,4.54,3.1-.7,2.11-3.94-.19-.81,1.31-3.59-2.3-4.44.09-3,1.87-3.32-1.79L92,243.23l-4.38.12-5.79,4.84-.34,3.2-2.89-2.53-2.23,4.76.81.88-1.61,3.21,2.38,2.84,2.08-.12,1.78,2.77-.28,2.1,1.42.65-1.27,2.39-2.72.66-2.79,4.09,2.55,3.7-.28,2.58,3.07,4.46-1.68,1.51-.48.94L78.08,286l-1.93-2.27-.79-.12-1.76-.88-.86-1.55-2.61-.79-1.7.6-.49-.71-3.82-1.83L60,277.86l-2.37-.66-.34.46-3.58-3.28-3.19-1.48-2.43-2.31,2-.64,2.33-3.35L50.88,265,55,263.32l-.08-.9-2.52.67.09-1.83L54,260.1l2.71-.31.44-1.39-.62-2.33,1.14-2.23,0-1.27-4.14-1.41-1.63.05-1.73-2-2.16.69-3.56-1.54.06-.87-1-1.93-2.24-.21L41,243.92l.7-.92-1.79-2.57-2.91.44-.85-.23-.71,1-1.05-.19-.69-2.93L33,237l.54-.44,2.26.16,1.09-1-.81-1.25-1.89-.83.17-.86-1.14-.87-1.76-3.15.6-1.32-.27-2.3L29.08,224l-1.47.59-.4-1.23-2.95-1.26-.91-3-.23-2.49-1.36-1.19L23,213.72l-.84-5,2-3.14-.42-1,3.18-3.07L24,198.91l6-7.41,2.6-3.45,1.06-3.1-4.15-4.26,1.14-4.14-2.52-4.86L30,165.93l-3.26-8,2.58-5.48-4.29-5,.41-5.4,2.26-.72,4.77-3.19,2.9-2.82,4.6,4.86,7.68,1.88,10.6,8.65,2.15,3.5.18,4.8-3.11,3.7-4.58,1.84-12.52-5.31-2.05.9,4.57,5.1.18,3.15.18,6.75,3.61,2L49,178.82l.36-3.11-1.69-2.8,1.79-2.51,6.78,4.1,2.36-1.59L56.74,168l6.53-6.74,2.59.4,2.62,2.43,1.63-4.81L67.78,155l1.37-4.41-2.06-4.69,7.84,2.44,1.6,4.19-3.55.9,0,4,2.21,2.44,4.33-1.54.69-4.61,5.85-3.53,9.79-6.54,2.11.38-2.76,4.64,3.48.79,2-2.59,5.25-.21,4.16-3.19,3.2,4.62,3.19-5.09-2.94-4.57,1.46-2.67,8.28,2.45,3.88,2.48,10.16,8.8,1.87-4-2.85-4.11-.08-1.68-3.38-.78.93-3.83-1.5-6.49-.09-2.74,5.18-8,1.84-8.42,2.08-1.87,7.43,2.51.58,5.18-2.66,7.29,1.75,2.78.9,5.93-.64,11.08,3.1,4.73-1.21,5-5.49,10.2,3.21,1,1.11-2.52,3.09-1.81.74-3.56,2.43-3.48-1.64-4.26,1.31-5.09-3.06-.64-.68-4.42,2.24-8.28-3.64-7,5-6-.64-6.62,1.39-.22,1.48,5.19-1.11,8.67,3,1.59-1.28-6.37,4.7-3.58,5.82-.49,5.18,5.18-2.5-7.62L171,101.73l4.88-2,6.74.44,6.08-1.32-2.28-5.38,3.25-7,3.22-.3,5.45-5.51,7.4-1.52.94-3.15L214,74.87l2.29,2.61,6.3-6.24,5.15.2.77-5.24,2.68-5.33,6.62-5.32,4.81,4.21-3.82,3.13,6.35,1.92.76,6,2.56-2.94,8.2.16L263,73.91l2.25,4.35-.7,5.85-3.1,3.24-7.37,5.92L252,96.35l3.47,1.43,4.15,2.55,2.52-1.91,1.43,6.4,1.24-2.56,4.48-1.58,9,1.65.69,4.58,11.72,1.43.16-7.48,5.95,1.74,4.48,0,4.52,5.14,1.3,6-1.66,3.83,3.52,7,4.41,3.5,2.7-9.18,4.5,4,4.78-2.38,5.43,2.72,2.06-2.48,4.59,1.24-2-8.4,3.71-4.06,25.32,6.06,2.39,5.35,7.34,6.66,11.32-1.63,5.58,1.42,2.33,3.5-.34,6,3.46,2.29,3.75-1.64,5-.21,5.3,1.57,5.31-.89,4.88,7,3.48-2.49-2.27-5.07,1.25-3.62,8.94,2.29,5.84-.49,8.06,3.85L450,142.9l6.86,5.85,7.36,7.34-.24,4.44,1.89,1.75-.65-5.15,7.61,1.07Zm-127.43,90.5L348,247.57l-1.16-4.51.08-4.5-1-4.5-.73-3.15-1.25.67,1.11,2.21L342.51,236l-.25,6.3,1.64,4.41-.12,5.85-.65,3.24.32,4.54-.31,4,.52,3.4,1.84-3.13,2.12,2.44.08-2.83L345,260l1.72-6.11Zm-343-27.48-2.93-.86L1,228.49l-.64,2.13,3.45.55L9,231.09l-.23-1.22.3-1.33ZM450,127.65l3.66-.52,2.89-2.07.24-1.19-4.06-2.51-2.38,0-.35.37-3.58,3.65.5,2.72ZM340.07,100.56l-2.66,3.91.49.52,5.75,1.09,4.25-.07-.34-2.57-4-3.81ZM364.64,91l3.24-4.25-7-2.87-5.23-1.68L355,85.81l5.21,4.27Zm-25.13-1.69,10.34.29,2.2-8.14-10.13-6.07-7.4-.51-3.7,2.18-1.51,7.75,5.55,7ZM92.4,115.28l-2.87,2,.41,4.83L95,124.42l.75,3.82,9.16,1.1,1.65-.74-5.36-7.11-.57-7.51,4.4-9.15L109.22,95l8.71-10.16,8.56-5.34,9.93-5.74,1.89-3.71-1.95-4.82-5.46,1.6-4.8,4.49-9.33,2.22L107.51,81l-6.27,5.85.76,4.87-6.71,9,2.57,1.22L92.3,110.2ZM239.87,47.34l.83-5.72-7.1-8.35-2.11-1L229.18,34l-5.12,18.6ZM75.64,18l3,3.87L82,19.21l.39-2.72,2.53-1.27L88.63,13l1.08-2.62L85.56,6.51l-2.65,2.9L81.3,13.54l-.57-4.65-4.26.21L71,12.25l6.24.52Zm131.25,13,4.65,5.73,7.81,4.2,6.12-1.8.69-13.62-6.46-16-5.44-9-6.07,4.11-7.28,11.84,3.83,3.27Z" transform="translate(-0.06 -0.16)"/><path id="SB" class="cls-1" d="M399.81,441.75l.78,1-1.95,0L397.57,441l1.68.68ZM396.26,440l-1.09.06-1.72-.28-.59-.44.18-1.12,1.85.44.91.6Zm2.32-.77-.42.52-2.08-2.45-.58-1.68h.95l1,2.25Zm-5.06-3.56.12.57-2.2-1.2-1.53-1-1.06-.94.42-.28,1.29.67,2.3,1.3ZM387,432.91l-.56.16-1.23-.64L384,431.27l.15-.46,1.67,1.18Z" transform="translate(-0.06 -0.16)"/><path id="TF" class="cls-1" d="M138.54,568l1.8,1.33,2.65.54.1.81-.78,2L138,573l-.07-2.29.42-1.76Z" transform="translate(-0.06 -0.16)"/><path id="TH" class="cls-1" d="M232.89,378.18l-2.52-1.31-2.4.06.41-2.25-2.47,0-.22,3.14L224.18,382l-.91,2.5.19,2.05,1.82.09,1.14,2.57.51,2.43,1.56,1.61,1.7.33,1.45,1.45-.91,1.15-1.86.34-.22-1.44-2.28-1.23-.49.5-1.11-1.07-.48-1.39-1.49-1.59L221.44,389l-.46,1.66-.53-1.56.31-1.76.82-2.71,1.36-2.91,1.54-2.65-1.09-2.6,0-1.33-.32-1.6-1.87-2.28-.67-1.45,1-.53,1-2.52-1.15-1.92-1.77-2.13-1.36-2.57,1.18-.53,1.28-3.19,2-.14,1.64-1.28,1.6-.69,1.22.92.16,1.78,1.89.13-.69,3.11.07,2.62,2.95-1.74.84.51,1.65-.08.56-1,2.12.2,2.13,2.38.18,2.87,2.27,2.53-.13,2.44-.91,1.3-2.63-.41-3.62.55-1.8,2.38Z" transform="translate(-0.06 -0.16)"/><path id="TJ" class="cls-1" d="M144.37,289.62l-1,1.13-3.05-.61-.27,2.1,3-.29,3.47,1.18,5.3-.55.71,3.32.92-.35,1.7.81-.09,1.38.42,2h-2.9l-1.93-.25-1.74,1.57-1.25.34-1,.74-1.1-1.15.26-2.95-.85-.17.3-1.08-1.52-.81-1.2,1.23-.3,1.43-.43.52-1.68-.08-.9,1.61-1-.67-2,1.12-.85-.42,1.57-3.57-.6-2.66-2.06-.86.73-1.59,2.34.17,1.33-2,.89-2.35,3.75-.86-.58,1.71.4,1Z" transform="translate(-0.06 -0.16)"/><path id="TL" class="cls-1" d="M295.65,437.25l.33-.66,2.41-.63,2-.1.87-.35,1.06.35-1,.76-2.92,1.24-2.35.81-.05-.86Z" transform="translate(-0.06 -0.16)"/><path id="TM" class="cls-1" d="M116.88,305.9l-.25-2.91-2.09-.12-3.2-3.1-2.24-.38L106,297.6l-2-.33-1.24.66-1.87-.1-2,2-2.47.68L95.92,298l.41-3.73-2.19-1.22.72-2.48L93,290.39l.62-3.09,2.64.9L98.73,287l-2-2.22-.8-2.15-2.26,1-.28,2.73-.88-2.41,1.24-1.25,3.18-.79,1.9,1.06,2,2.93,1.44-.18,3.16-.05-.46-1.88,2.4-1.3,2.36-2.2,3.78,2,.3,3,1.07.76,3-.17.94.67,1.38,3.79,3.21,2.51,1.83,1.69,2.93,1.75,3.73,1.52-.08,2.16-.84-.11-1.33-.94-.44,1.25-2.36.68-.56,2.79-1.58,1.05-2.21.52-.59,1.55-2.11.46Z" transform="translate(-0.06 -0.16)"/><path id="TW" class="cls-1" d="M286.7,342.27,285,347.14l-1.2,2.48-1.48-2.55-.32-2.25,1.65-3,2.25-2.33,1.28.92Z" transform="translate(-0.06 -0.16)"/><path id="UZ" class="cls-1" d="M131.76,300l.08-2.16-3.73-1.52-2.93-1.75-1.83-1.69-3.21-2.51-1.38-3.79-.94-.67-3,.17-1.07-.76-.3-3-3.78-2-2.36,2.2-2.4,1.3.46,1.88-3.16.05-.11-14.13,7.22-2.35.52.35,4.35,2.84,2.29,1.48,2.68,3.5,3.29-.56,4.81-.3,3.35,2.8-.21,3.8,1.37,0,.57,3.06,3.57.12.76,1.75,1.05,0,1.22-2.65,3.7-2.61,1.61-.7.83.37-2.35,2.43,2.07,1.4,2-.92,3.32,1.95L146.5,290l-2.13-.36-1.16.1-.4-1,.58-1.71-3.75.86-.89,2.35-1.33,2-2.34-.17-.73,1.59,2.06.86.6,2.66-1.57,3.57-2.12-.74Z" transform="translate(-0.06 -0.16)"/><path id="VN" class="cls-1" d="M248.21,350.87l-3.74,2.56-2.34,2.81-.62,2.05,2.15,3.1,2.62,3.81,2.54,1.79,1.71,2.33,1.28,5.32-.38,5-2.33,1.87-3.21,1.83-2.29,2.36-3.5,2.62-1-1.81.79-1.91L237.79,383l2.43-1.14,2.94-.2-1.23-1.73,4.71-2.19.35-3.42-.65-1.92.51-2.88-.71-2-2.12-2-1.77-2.57-2.33-3.46-3.36-1.76.81-1.07,1.79-.77-1.09-2.6-3.45,0-1.26-2.71-1.64-2.38,1.51-.74,2.24,0,2.72-.35,2.39-1.62,1.35,1.14,2.56.55-.44,1.74,1.34,1.23Z" transform="translate(-0.06 -0.16)"/><path id="VU" class="cls-1" d="M415.86,458.9l-.92.38L414,458l.1-.78Zm-2.06-4.44.45,2.33-.75-.36-.58.16-.4-.8-.06-2.21Z" transform="translate(-0.06 -0.16)"/></svg>