<svg id="Calque_1" data-name="Calque 1" xmlns="http://www.w3.org/2000/svg" viewBox="0 0 258.78 432.07"><defs><style>.cls-1{fill:#ccc;stroke:#fff;stroke-width:0.5px;}</style></defs><path id="AL" class="cls-1" d="M144.05,388.51l-.6,2.14.67,2.68,2,1.51-.1,1.63-1.53.89-.28,2-2.19,3-.8-.43-.1-1.34-2.61-2.06-.41-2.94.4-4.25.65-1.94-.8-1-.31-2,2-3.13.3,1.2,1.26-.56,1,1.7,1.12.65Z" transform="translate(0.3 -0.26)"/><path id="AT" class="cls-1" d="M127,346.84l-.35,2.87H124l.92,1.51-1.57,4.45-.9,1.15-4.12.17L116,358.55,112.1,358l-6.74-1.77-1-2.39-4.66,1.19-.55,1.31-2.85-1-2.4-.18L91.72,354l.72-1.69L92.26,351l1.42-.38,2.38,1.92.67-1.83,4.16.3,3.36-1.25,2.26.21,1.47,1.43.44-1.18-.67-4.57,1.69-.9,1.67-3.28,3.49,2.29,2.65-2.91,1.66-.54,3.66,2.18,2.21-.37L127,343.5l-.38.9Z" transform="translate(0.3 -0.26)"/><path id="BA" class="cls-1" d="M136.59,369.11l1.7,0-1.18,2.9,2.28,2.52-.69,3.06-1.11.29-.88.59-1.53,1.5-.69,3.53-4.17-2.43-1.78-2.69-1.79-1.43-2.17-2.43-1-2-2.31-3.08,1-2.75,1.69,1.53,1-1.39,2.2-.14,4,1.1,3.26-.09Z" transform="translate(0.3 -0.26)"/><path id="BE" class="cls-1" d="M62.68,323.41l3.45.59,4.36-1.56,3,3.29,2.59,1.74-.53,5-1.23.28-.51,4.08-4.12-3.31-2.42.57L64,330.61l-2.19-3-2.19-.12-.68-2.63Z" transform="translate(0.3 -0.26)"/><path id="BG" class="cls-1" d="M153.79,373.23l1.35,2.68,1.83-.47,3.62,1,6.91.34,2.34-1.66,5.55-1.52,3.42,2.38,2.77.68-2.44,2.68-1.72,4.58,1.52,3.62-4.06-.84-4.8,2-.05,3.13-4.28.59-3.32-2.19-3.77,1.72-3.48-.18-.34-4.15-2.35-2,.77-.89-.51-.76.79-2,1.8-2-2.29-2.79-.43-2.38Z" transform="translate(0.3 -0.26)"/><path id="BY" class="cls-1" d="M157.68,303.54l4.56,0,5.11-3,1.09-4.58,3.87-2.62-.45-3.71,2.87-1.4,5.06-3.24,5,2.11.66,2.08,2.48-1,4.6,2,.46,3.87-1,2.21,3,5.3,1.92,1.46-.29,1.44,3.18,1.4,1.35,2.1-1.83,1.72-3.8-.27-.91.73,1.11,2.59,1.16,4.93-4,.45-1.45,1.68-.3,3.8-1.87-.73-4.25.36-1.24-1.76-1.76,1.32-1.78-1.09-3.71-.16-5.25-1.82-4.76-.59-3.65.17-2.58,2.05-2.26.3-.08-3.38-1.46-3.56,2.83-1.58,0-3.1-1.31-3Z" transform="translate(0.3 -0.26)"/><path id="CH" class="cls-1" d="M92.26,351l.18,1.23L91.72,354l2.13,1.26,2.4.18-.37,2.81-2.08,1.15-3.48-.85-1,2.73-2.25.22-.81-1.07-2.64,2.29-2.27.32-2-1.45-1.62-3-2.25,1.06.07-3.08,3.44-3.87-.15-1.77,2.15.64,1.29-1.19,4,.05,1-1.51Z" transform="translate(0.3 -0.26)"/><path id="CY" class="cls-1" d="M206.75,428.21l3.18-2.45-4.28,1.72-3.39-.08-.68,1.39-.34,0L199,429l1.1,2.3,2.3.73,4.83-2.31-.15-.46Z" transform="translate(0.3 -0.26)"/><path id="CZ" class="cls-1" d="M127,343.5l-2.17-1.35-2.21.37-3.66-2.18-1.66.54-2.65,2.91-3.49-2.29-2.66-3.08L106,336.68l-.5-3.07-.82-2.17,3.42-1.61,1.75-1.84,3.38-1.44,1.19-1.42,1.24.86,2.1-.78,2.23,2.4,3.52.64-.29,2,2.56,1.52.7-1.9,3.23.82.45,2.3,3.5.44,2.17,3.58h-1.41l-.73,1.3-1.08.31-.3,1.64-.91.34-.12.66-1.61.74-2.09-.12Z" transform="translate(0.3 -0.26)"/><path id="DE" class="cls-1" d="M93.8,294.88l.08,3.15,4.76,1.89,0,2.85,4.79-1.51,2.65-2.21,5.32,3.18,2.22,2.54,1.1,4-1.31,2.09,1.71,2.77,1.17,4.12-.37,2.62,1.93,4.82-2.1.78-1.24-.86-1.19,1.42L109.89,328l-1.75,1.84-3.42,1.61.82,2.17.5,3.07,2.41,1.74,2.66,3.08-1.67,3.28-1.69.9.67,4.57-.44,1.18L106.51,350l-2.26-.21L100.89,351l-4.16-.3-.67,1.83-2.38-1.92-1.42.38-5.05-2.13-1,1.51-4-.05.6-5,2.38-4.88-6.78-1.32-2.23-1.88.27-3.19-.94-1.65.53-5-.79-7.88H78.1l1.19-2.87,1.18-7.1L79.59,307l.92-1.68,3.94-.43.87,1.75,3.2-3.92-1.08-3-.22-4.61,3.56,1.08Z" transform="translate(0.3 -0.26)"/><path id="DK" class="cls-1" d="M106.84,289.71,104,296.38l-4.93-4.64-.66-3.45,6.91-2.78Zm-8.38-7.15-1.15,3.2-1.4-.92-3.39,6,1.28,4-3,1.25-3.56-1.08-1.91-4.58-.14-8.6.78-2.31L87.3,277l4.15-.54,1.66-2.4,3.79-2.48-.16,4.5-1.4,2.81.57,2.4Z" transform="translate(0.3 -0.26)"/><path id="EE" class="cls-1" d="M161.59,271l.54-5.25-1.73,1.13-3-3.19-.41-5.23,6-2.57,5.93-1.34,5.11,1.53,4.87-.27.71,1.61-3.36,5.26,1.4,8.34-2,2.78h-3.88l-4.06-3.26-2.06-1.09Z" transform="translate(0.3 -0.26)"/><path id="ES" class="cls-1" d="M4.5,388.35l.24-4.51-1.92-2.78,6.66-4.66,5.76,1.17,6.33,0,5,1.11,3.91-.34,7.62.21L40,381l8.67,2.9,1.72-1.38,5.3,2.89,5.46-.83.25,3.68-4.46,4.18-6,1.32-.42,2.08-2.9,3.42-1.81,5,1.84,3.45-2.73,2.68-1,3.87-3.55,1.18L37,419.93,31,420l-4.49-.11L23.53,422l-1.8,2.2-2.3-.48-1.75-2-1.33-3.36-4.4-.91-.39-1.95,1.74-2.22.65-1.62-1.62-1.77,1.3-3.95-1.89-3.64,2-.5.19-2.89.77-.9.06-4.83L17,391.49l-1.32-3.15-2.75-.22-.8.79H9.32l-1.18-3.09-1.93.92Z" transform="translate(0.3 -0.26)"/><path id="FI" class="cls-1" d="M181.74,150.7l-.68,9.08,7.21,8.38-4.35,9.2,5.48,13.37-3.17,9.68,4.24,8.16-1.93,7,7,7.15-1.77,5.22-4.38,5.8-10.09,12.44-8.54.76-8.29,3.47-7.66,2-2.73-5.15-4.56-3.14,1.05-9.62-2.29-9.09,2.25-6,4.27-6.62,10.77-11.79,3.15-2.33-.49-4.77-6.55-5.42-1.59-4.53-.13-18.69-7.35-8.65-6.28-6.39,2.83-3.51,5.23,7,6.15-.65,5.06,3.14,4.49-5.77,2.31-9.84,7.31-4.66,6.05,5.46Z" transform="translate(0.3 -0.26)"/><path id="FR" class="cls-1" d="M92.09,386.64l-1.55,4.86-2.14-1.28L87.31,386l1-2.36,3-2.45ZM64,330.61l3.29,3.46,2.42-.57,4.12,3.31,1,.63,1.36-.15,2.22,1.88,6.79,1.33-2.38,4.87-.6,5-1.29,1.19-2.15-.64.15,1.77-3.44,3.87-.07,3.08,2.25-1.06,1.62,3-.2,1.91L80.49,366l-1.64,2,1.22,5.11,2.55.83-.54,2.83-4.26,3.65-9.29-1.75-6.86,2.09-.54,3.85-5.46.83-5.3-2.89-1.72,1.38L40,381l-1.88-2.51,2.44-3.89.9-13.24-4.86-7.16-3.48-3.5L25.9,348l-.47-5.15,6.11-1.55,7.9,1.83L38,335l4.45,3.11,11-5.67,1.41-6.06,4.12-1.51.68,2.63,2.19.12Z" transform="translate(0.3 -0.26)"/><path id="GB" class="cls-1" d="M20.39,298.37l-2.52,5.52-3.56-1.64-2.92.11,1-4.32-1-4.38,3.95-.34Zm12.52-34.88-5,9.63,4.8-1.21,5.16,0-1.23,7.09-4.23,7.61,4.87.54.37.88,4.2,9.72L45,299.1l2.9,9.09,1.34,3.09L55,312.76l-.57,4.93L52,319.93l1.88,3.91-4.24,3.91-6.3-.07-8,2-2.2-1.45L30,331.71l-4.36-.83-3.31,2.8-2.5-1.46,6.91-7.79L31,322.81h0l-7.36-1.26-1.33-3,4.92-2.37L24.59,312l.89-5.13,7,.71h0l.7-4.61L30,298l-.07-.11-5.72-1.43-1.12-2.22,1.71-3.68-1.55-2.3-2.54,3.93-.27-8.06-2.38-4.35,1.71-9,3.66-7.25,3.76.72Z" transform="translate(0.3 -0.26)"/><path id="GR" class="cls-1" d="M158.7,425.57l2.57,1.94,3.67-.33,3.51.41-.12,1,2.57-.69-.59,1.69-6.78.49,0-.95L157.83,428Zm13.68-35.21-1.46,3.9-1.12.7-2.87-.18-2.45-.58-5.71,1.61,3.27,3.46-2.4,1H157l-2.49-3.17-.89,1.35,1.06,3.66,2.35,2.85-1.77,1.32,2.62,2.77,2.33,1.74.07,3.36L158,412.23l-2.07.35,1.39,3-1.55.32-1.68-1.17,2,6.64-1,0-.75-2.12-1,0-.44,2.21-.76-.5.17-1.24-.94-1.76H150.4l.2,1.42-.42.45-1-.91-.64-1.71.87-1-.6-1.24-.68-.64-.72-.16-.82-1.59,1-.87.6-.81.94.17.42-.69,1-.27,1.15.77.93.29.65-1.05-1.58-.14-.93-.33-2.1.47-2,.08-1.83-2.75-.31-.43.28-1.08-2.39-1.94-.32-1.73,2.19-3,.29-2,1.53-.9.09-1.62,3.08-.55,1.8-1.36,2.55.12.78-1.09.89-.21,3.49.18,3.77-1.72,3.32,2.19,4.28-.59.05-3.13Z" transform="translate(0.3 -0.26)"/><path id="HR" class="cls-1" d="M135.76,362.1l1.14,2.6,1.5,1.91-1.81,2.5-2.13-1.47-3.26.09-4-1.1-2.2.14-1,1.39-1.69-1.53-1,2.75,2.31,3.08,1,2,2.17,2.43,1.79,1.43,1.78,2.69,4.17,2.43-.52,1.08-4.43-2.36-2.73-2.31L122.5,378l-4-4.8.95-.49-2.15-2.77-.08-2.23-3-1.05-1.45,2.86-1.39-2.22.11-2.32.17-.1,3.28.22.86-1.13,1.6,1.1,1.85.13,0-1.88,1.64-.69.46-2.73,3.75-1.81,1.5.84,3.52,2.91,3.89,1.3Z" transform="translate(0.3 -0.26)"/><path id="HU" class="cls-1" d="M123.38,355.68l1.57-4.45-.92-1.51h2.66l.35-2.87,2.4,1.8,1.74.76,3.95-.85.38-1.41,1.87-.21,2.3-1.1.51.46,2.21-.88,1.1-1.67,1.55-.43,5,2.15,1-.73,2.61,1.93.33,1.88L151.16,350l-2.23,4.7-2.85,4.64-3.77,1.28-2.94-.3-3.61,1.78-1.76,1-3.89-1.3-3.52-2.91-1.5-.84-.92-2.31Z" transform="translate(0.3 -0.26)"/><path id="IE" class="cls-1" d="M17.87,303.89l.77,5.65-3.56,6.93L6.73,321,.07,319.82l3.81-8-2.46-8,6.41-6.3,3.56-3.82,1,4.38-1,4.32,2.92-.11Z" transform="translate(0.3 -0.26)"/><path id="IT" class="cls-1" d="M120.17,410.73l-1.7,4.68.71,1.83-1,3-3.6-2.21-2.4-.63-6.58-3,.67-3.05,5.51.54,4.8-.65ZM90.45,392.56l2.82,4.4-.66,8.09-2.14-.39-1.92,2-1.79-1.6-.19-7.37-1.07-3.53,2.59.31Zm14.91-36.3L112.1,358l-.51,3.34,1.12,2.87-3.75-1-3.83,2.38.26,3.3-.57,1.89,1.54,3.34,4.42,3.27,2.37,5.32,5.24,5.12,3.69,0,1.15,1.39-1.32,1.25,4.21,2.26,3.46,1.88,4,3.22.49,1.15-.88,2.2-2.61-2.87-4.1-1-2,4,3.41,2.26-.56,3.15-2,.36-2.52,5.14-2,.45,0-1.82,1-3.21,1-1.29-1.84-3.51-1.43-3.08-2-.76-1.39-2.66-3-1.13-2-2.5-3.48-.4-3.68-2.83-4.31-4.11-3.2-3.68-1.47-6.39-2.35-.76-3.83-2.16-2.17.89-2.72,3-2,.47.54-2.83-2.55-.83L78.85,368l1.64-2-1.39-2.52.2-1.9,2,1.44,2.28-.32,2.64-2.29.81,1.08,2.25-.22,1-2.74,3.48.86,2.08-1.15.37-2.81,2.85,1,.55-1.31,4.66-1.19Z" transform="translate(0.3 -0.26)"/><path id="XK" class="cls-1" d="M144.86,387.27l-.21,1.3-.6-.06-.32-2.29-1.12-.65-1-1.7.88-1.43,1.13-.46.65-2.14.85-.35.67.9.88.4.61,1,.78.31.91,1.18.67,0-.52,1.55-.57.75.16.48-1.06.24Z" transform="translate(0.3 -0.26)"/><path id="LT" class="cls-1" d="M154.14,300.21l-.38-2.06.5-2.23-2.08-1.3-4.93-1.44-1-7,5.39-2.59,7.9.55,4.63-.84.66,1.76,2.5.54,4.53,4.06.45,3.71L168.44,296l-1.09,4.58-5.11,3-4.56,0-1.13-2.47Z" transform="translate(0.3 -0.26)"/><path id="LU" class="cls-1" d="M75.53,332.45l.94,1.65-.27,3.19-1.36.15-1-.63.51-4.08Z" transform="translate(0.3 -0.26)"/><path id="LV" class="cls-1" d="M146.25,286.18l.16-6.39,2.31-5.44,4.44-3,3.74,6.51,3.78-.17.91-6.7,4-1.56,2.06,1.09,4.06,3.26h3.88l2.27,2,.4,4.19,1.52,5-5.06,3.24-2.87,1.4-4.53-4.06-2.5-.54-.66-1.76-4.63.84-7.9-.55Z" transform="translate(0.3 -0.26)"/><path id="MD" class="cls-1" d="M172.45,346.16l1.13-1,3.13-.7,3.47,2.2,1.94.26,2.12,1.89-.33,2.36,1.71,1.14.68,2.88L188,356.9l-.34,1,.88.69-1.25.5-2.77-.2L184,358l-1,.54.33,1.22-1.29,2.16-.82,2.31-1.18.73-.85-3.07.5-2.9-.15-3-2.72-4.1-1.49-2.94-1.46-2.08Z" transform="translate(0.3 -0.26)"/><path id="ME" class="cls-1" d="M140.34,384.43l-.3-1.2-2,3.13.31,2-1-.48L136,385.82l-2-1.26.52-1.08.69-3.53,1.53-1.5.88-.59,1.25,1.11.69.89,1.55.69,1.79,1.34-.39.55-.88,1.43Z" transform="translate(0.3 -0.26)"/><path id="MK" class="cls-1" d="M144.05,388.51l.6.06.21-1.3,2.78-1,1.06-.24,1.6-.37,2.19-.11,2.35,2,.34,4.15-.9.21-.78,1.08-2.55-.12-1.79,1.36-3.08.55-2-1.51-.67-2.68Z" transform="translate(0.3 -0.26)"/><path id="NL" class="cls-1" d="M75.67,306.73l3.92.22.88,2.66-1.18,7.1-1.19,2.87H75.27l.79,7.88-2.59-1.74-3-3.29L66.13,324l-3.45-.59,2.43-2.07L69.23,310Z" transform="translate(0.3 -0.26)"/><path id="NO" class="cls-1" d="M179.73,121.31l14.74,10.48-6.07,3.74,5.16,8.59-8,5.36-3.81,1.22,2-9.4-6.05-5.46-7.31,4.66-2.31,9.84-4.49,5.77L158.52,153l-6.15.65-5.24-7-2.82,3.51-2.92.54-.69,8.54-8.88-2.06-1.25,7.09-4.52,0-3.11,8.8-4.71,13.22-7.32,16,1.72,3.75L111,210.24l-4.67-.18L103.26,220l.29,13.51,3,5L105,249.8l-3.92,6.4L99,261.49l-3.16-5.63-9.3,10.52-6.28,2.09-6.51-4.56-1.69-9.85-1.49-22.27,4.34-6.51,12.44-8.71,9.3-11.06,8.62-15.63,11.32-23.12,7.89-9.53,13-16.62,10.33-6,7.75.73,7.18-11.75,8.59.64Z" transform="translate(0.3 -0.26)"/><path id="PL" class="cls-1" d="M117.8,325.21l-1.93-4.82.37-2.62-1.17-4.12-1.71-2.77,1.31-2.09-1.1-4,3.22-2.34,7.35-3.72,5.93-2.75,4.7,1.37.36,2,4.54.1,5.8.92,8.67-.12,2.41.86,1.13,2.47.21,3.51,1.31,3,0,3.1-2.83,1.58,1.46,3.56.08,3.38,2.37,6.54-.5,2.07-2.34.86-4.27,6.06,1.21,3.24-1-.42-4.48-2.77-3.39,1-2.22-.74-2.78,1.54-2.38-2.55-1.94,1-.26-.44-2.17-3.58-3.5-.44-.45-2.3-3.23-.82-.7,1.9-2.56-1.52.29-2-3.52-.64Z" transform="translate(0.3 -0.26)"/><path id="PT" class="cls-1" d="M4.5,388.35l1.71-1.6,1.93-.92,1.18,3.09H12.1l.8-.79,2.75.22L17,391.49l-2.18,1.69L14.73,398l-.77.9-.19,2.89-2,.5,1.89,3.64-1.3,3.95L14,411.66l-.65,1.62-1.74,2.22.39,1.95L10.06,419l-2.48-.82-2.44.65.72-4.62-.44-3.65L3.31,410,2.19,407.7l.37-4,1.88-2.2.33-2.48,1-3.71-.11-2.63-.94-2.25Z" transform="translate(0.3 -0.26)"/><path id="RO" class="cls-1" d="M154,348.54l2-1.51,2.92.78,3,0,2.18,1.71,1.61-1.08,3.48-.67,1.18-1.64h2l1.44.68,1.46,2.08,1.49,2.94,2.72,4.1.15,3-.5,2.9.85,3.07,2.1,1.23,2.21-1.08,2.14,1.15.11,1.72-2.29,1.42-1.43-.62-1.32,7.92-2.77-.68-3.42-2.38-5.55,1.52-2.34,1.66-6.91-.34-3.62-1-1.83.47-1.35-2.68-.86-1.15L154,371l-1.17-.82-1.47,1.48-2.75-1.92-.37-2.73-2.87-1.57-.53-2.14-2.55-2.65,3.77-1.28,2.85-4.64,2.23-4.7Z" transform="translate(0.3 -0.26)"/><path id="RS" class="cls-1" d="M145.39,365.41l2.87,1.57.37,2.73,2.75,1.92,1.47-1.48L154,371l-1.09,1.11.86,1.15-1.17,1.48.43,2.38,2.29,2.79-1.8,2-.79,2,.51.76-.77.89-2.19.11-1.6.37-.16-.48.57-.75.52-1.55-.67,0-.91-1.18-.78-.31-.61-1-.88-.4-.67-.9-.85.35-.65,2.14-1.13.46.39-.55-1.79-1.34-1.55-.69-.69-.89-1.25-1.11,1.11-.29.69-3.06L137.11,372l1.18-2.9-1.7,0,1.81-2.5-1.5-1.91-1.14-2.6,3.61-1.78,2.94.3,2.55,2.65Z" transform="translate(0.3 -0.26)"/><path id="SE" class="cls-1" d="M151.55,191.67,147,199.55l.73,6.75-7.49,8.63-9.1,9L127.7,238l3.36,6.83,4.5,5.28-4.33,10.46-4.9,2.12-1.79,14.85-2.68,8-5.71-.82-2.67,6.63-5.45.38-1.5-7.91-3.94-9.76L99,261.49l2.07-5.29,3.92-6.4,1.56-11.3-3-5L103.26,220l3.06-9.92,4.67.18,1.64-4.29-1.71-3.75,7.31-16L122.94,173l3.11-8.81,4.52,0,1.25-7.09,8.88,2.06.69-8.54,2.92-.54,6.28,6.39,7.35,8.65.13,18.69,1.59,4.53Z" transform="translate(0.3 -0.26)"/><path id="SI" class="cls-1" d="M112.1,358l3.89.52,2.37-1.55,4.12-.17.9-1.15.79.07.92,2.31-3.75,1.81-.46,2.73-1.64.69,0,1.88-1.85-.13-1.6-1.1-.86,1.13-3.28-.22,1-.61-1.12-2.87Z" transform="translate(0.3 -0.26)"/><path id="SJ" class="cls-1" d="M163.52,71.83l-10.52,9-8.31-5.07L147.94,70l-2.84-7.3L154.86,58l1.87,8.69ZM133,27l15.5,19-11.85,9.51-2.62,16.95-4.13,4.18-2.25,17.65-5.67.8L111.89,82.23l4.27-7.77L109.1,68,99.92,48.11l-3.66-19.8,12.84-9.55,2.58,9.34,6.71-.36,1.79-9.13,6.91-.95ZM166.93,7.76l9.23,9.75-7,14.31-13.66,3-13.9-4.3-.83-7.27L134,22.82l-5.16-12.57,14.55-7.93,6.84,6.84L155,.61Z" transform="translate(0.3 -0.26)"/><path id="SK" class="cls-1" d="M135.87,337.05l.26.44,1.94-1,2.38,2.55,2.78-1.54,2.22.74,3.39-1,4.48,2.77L152,341.87l-.91,2.86-1,.73-5-2.15-1.55.43-1.1,1.67-2.21.88-.51-.46-2.3,1.1-1.87.21-.38,1.41-3.95.85-1.74-.76-2.4-1.8-.47-2.44.38-.9.67-1.57,2.09.12,1.61-.74.12-.66.91-.34.3-1.64,1.08-.31.73-1.3Z" transform="translate(0.3 -0.26)"/><path id="TR" class="cls-1" d="M220.94,391.78l6.76,2.41,5.48-1,4.06.55,5.56-3.26,5-.29,4.54,3.07.8,2.18-.46,3,3.51,1.53,1.85,1.79-3.22,1.73,1.47,6.91-.93,1.85L258,417l-2.26,1-1.65-1.5-5.48-.76-2,.92-5.36.91-2.54-.1-5.42,2.2-3.88,0-2.5-1.1-5.19,1.63-1.54-1.14-.25,3.25-1.27,1.28-1.26,1.26-1.73-2.63,1.78-2.19-2.87.5-3.94-1.35-3.24,3.36-7.15.66-3.81-3.13-5.08-.2-1.08,2.42L187,423l-4.55-3.1-5.14.11-2.79-5.86-3.45-3.3,2.3-4.66-3-2.9,5.23-5.85,7.25-.25,2-4.71,9,.82,5.66-4.06,5.49-1.78,7.79-.13Zm-45.79,4-3.93,3.32-1.48-2.87.06-1.28,1.12-.7,1.46-3.9-2.29-1.67,4.79-2,4.06.84.56,2.43,4.11,2-.86,1.53-5.59.34Z" transform="translate(0.3 -0.26)"/><path id="UA" class="cls-1" d="M196.79,317.68l1.76.31,1.19-1.74,1.43.38,4.88-.74,3,4.33-1.17,1.53.39,2.34,3.75.36,1.68,3.24-.1,1.46,6,2.59,3.61-1.17,2.91,3.43,2.75-.07,6.95,2.36.05,2.12L234,342.17l1,3.91-.74,2.34-4.56.51-2.43,1.95-.15,3.08-3.76.55-3.13,2.22-4.41.36-4.06,2.54-2.22,1.73,2.5,2.47,2.3,1.62,4.81-.4-.92,2.38-5.16,1.15-6.4,3.82L204,371.06l1-3.11L199.94,366l.83-1.28,5.31-2.75-.66-1.37-.76.69-.75-.35-7.32-1.72-.32-2.54-4.37.84-1.75,3.74-3.64,5-2.14-1.15-2.21,1.08-2.1-1.23,1.18-.73.82-2.31,1.29-2.16-.33-1.22,1-.54.46.94,2.77.2,1.25-.5-.88-.69.34-1-1.65-1.75-.68-2.88-1.71-1.14.33-2.36-2.12-1.89-1.94-.26-3.47-2.2-3.13.7-1.13,1h-2l-1.18,1.64-3.48.67-1.61,1.08L162,347.84l-3,0-2.92-.78-2,1.51-.33-1.88-2.61-1.93.91-2.86,1.31-1.86,1,.42-1.21-3.24,4.27-6.06,2.34-.86.5-2.07-2.37-6.54,2.26-.3,2.58-2.05,3.65-.17,4.76.59,5.25,1.82,3.71.16,1.78,1.09,1.76-1.32,1.24,1.76,4.25-.36,1.87.73.3-3.8,1.45-1.68Z" transform="translate(0.3 -0.26)"/></svg>